<?xml version="1.0" standalone="no"?>
 <!DOCTYPE svg PUBLIC "-//W3C//DTD SVG 1.1//EN" 
 "http://www.w3.org/Graphics/SVG/1.1/DTD/svg11.dtd"> 
<svg xmlns="http://www.w3.org/2000/svg" version="1.1" 
    width="11.2725cm" height="6.53542cm" viewBox="0 0 44380 25730 ">
<title>SVG Picture created as raspberry_shielded-brd.svg date 2018/02/13 05:49:47 </title>
  <desc>Picture generated by PCBNEW </desc>
<g style="fill:#000000; fill-opacity:1;stroke:#000000; stroke-opacity:1;
stroke-linecap:round; stroke-linejoin:round; "
 transform="translate(0 0) scale(1 1)">
</g>
<g style="fill:#000000; fill-opacity:0.0; 
stroke:#000000; stroke-width:-0.000393701; stroke-opacity:1; 
stroke-linecap:round; stroke-linejoin:round;">
</g>
<g style="fill:#000000; fill-opacity:0.0; 
stroke:#000000; stroke-width:118.11; stroke-opacity:1; 
stroke-linecap:round; stroke-linejoin:round;">
<path d="M8401 21584
L8401 20994
L8176 20994
L8119 21022
L8091 21050
L8063 21106
L8063 21191
L8091 21247
L8119 21275
L8176 21303
L8401 21303
" />
<path d="M7726 21584
L7782 21556
L7810 21528
L7838 21472
L7838 21303
L7810 21247
L7782 21219
L7726 21191
L7641 21191
L7585 21219
L7557 21247
L7529 21303
L7529 21472
L7557 21528
L7585 21556
L7641 21584
L7726 21584
" />
<path d="M7023 21556
L7079 21584
L7191 21584
L7248 21556
L7276 21528
L7304 21472
L7304 21303
L7276 21247
L7248 21219
L7191 21191
L7079 21191
L7023 21219
" />
<path d="M6769 21584
L6769 20994
" />
<path d="M6713 21359
L6544 21584
" />
<path d="M6544 21191
L6769 21416
" />
<path d="M6066 21556
L6123 21584
L6235 21584
L6291 21556
L6320 21500
L6320 21275
L6291 21219
L6235 21191
L6123 21191
L6066 21219
L6038 21275
L6038 21331
L6320 21388
" />
<path d="M5870 21191
L5645 21191
" />
<path d="M5785 20994
L5785 21500
L5757 21556
L5701 21584
L5645 21584
" />
<path d="M5251 21275
L5448 21275
" />
<path d="M5448 21584
L5448 20994
L5167 20994
" />
<path d="M4688 21584
L4688 21275
L4717 21219
L4773 21191
L4885 21191
L4942 21219
" />
<path d="M4688 21556
L4745 21584
L4885 21584
L4942 21556
L4970 21500
L4970 21444
L4942 21388
L4885 21359
L4745 21359
L4688 21331
" />
<path d="M4407 21584
L4407 21191
" />
<path d="M4407 21303
L4379 21247
L4351 21219
L4295 21191
L4239 21191
" />
<path d="M4042 21584
L4042 21191
" />
<path d="M4042 21247
L4014 21219
L3957 21191
L3873 21191
L3817 21219
L3789 21275
L3789 21584
" />
<path d="M3789 21275
L3760 21219
L3704 21191
L3620 21191
L3564 21219
L3535 21275
L3535 21584
" />
<path d="M7233 22560
L7149 22588
L7008 22588
L6952 22560
L6924 22532
L6896 22476
L6896 22420
L6924 22363
L6952 22335
L7008 22307
L7121 22279
L7177 22251
L7205 22223
L7233 22166
L7233 22110
L7205 22054
L7177 22026
L7121 21998
L6980 21998
L6896 22026
" />
<path d="M6418 22560
L6474 22588
L6587 22588
L6643 22560
L6671 22504
L6671 22279
L6643 22223
L6587 22195
L6474 22195
L6418 22223
L6390 22279
L6390 22335
L6671 22391
" />
<path d="M6137 22588
L6137 22195
" />
<path d="M6137 22307
L6109 22251
L6080 22223
L6024 22195
L5968 22195
" />
<path d="M5827 22195
L5687 22588
L5546 22195
" />
<path d="M5096 22560
L5152 22588
L5265 22588
L5321 22560
L5349 22504
L5349 22279
L5321 22223
L5265 22195
L5152 22195
L5096 22223
L5068 22279
L5068 22335
L5349 22391
" />
<path d="M4815 22588
L4815 22195
" />
<path d="M4815 22307
L4787 22251
L4759 22223
L4703 22195
L4646 22195
" />
<path d="M17705 11293
L17705 11686
" />
<path d="M17845 11068
L17986 11489
L17620 11489
" />
<path d="M17367 11658
L17367 11686
L17395 11743
L17424 11771
" />
<path d="M16355 11686
L16692 11686
" />
<path d="M16524 11686
L16524 11096
L16580 11180
L16636 11236
L16692 11265
" />
<path d="M16017 11349
L16074 11321
L16102 11293
L16130 11236
L16130 11208
L16102 11152
L16074 11124
L16017 11096
L15905 11096
L15849 11124
L15821 11152
L15793 11208
L15793 11236
L15821 11293
L15849 11321
L15905 11349
L16017 11349
L16074 11377
L16102 11405
L16130 11461
L16130 11574
L16102 11630
L16074 11658
L16017 11686
L15905 11686
L15849 11658
L15821 11630
L15793 11574
L15793 11461
L15821 11405
L15849 11377
L15905 11349
" />
<path d="M15511 11658
L15511 11686
L15539 11743
L15568 11771
" />
<path d="M14499 11686
L14836 11686
" />
<path d="M14668 11686
L14668 11096
L14724 11180
L14780 11236
L14836 11265
" />
<path d="M13993 11293
L13993 11686
" />
<path d="M14133 11068
L14274 11489
L13908 11489
" />
<path d="M13655 11658
L13655 11686
L13683 11743
L13712 11771
" />
<path d="M12643 11686
L12980 11686
" />
<path d="M12812 11686
L12812 11096
L12868 11180
L12924 11236
L12980 11265
" />
<path d="M12109 11096
L12390 11096
L12418 11377
L12390 11349
L12334 11321
L12193 11321
L12137 11349
L12109 11377
L12080 11433
L12080 11574
L12109 11630
L12137 11658
L12193 11686
L12334 11686
L12390 11658
L12418 11630
" />
<path d="M16590 4257
L16140 4257
" />
<path d="M16365 4482
L16365 4032
" />
<path d="M15915 3892
L15549 3892
L15746 4117
L15662 4117
L15605 4145
L15577 4173
L15549 4229
L15549 4370
L15577 4426
L15605 4454
L15662 4482
L15830 4482
L15887 4454
L15915 4426
" />
<path d="M15380 3892
L15184 4482
L14987 3892
" />
<path d="M14846 3892
L14480 3892
L14677 4117
L14593 4117
L14537 4145
L14509 4173
L14480 4229
L14480 4370
L14509 4426
L14537 4454
L14593 4482
L14762 4482
L14818 4454
L14846 4426
" />
<path d="M16027 5261
L15577 5261
" />
<path d="M15802 5486
L15802 5036
" />
<path d="M15015 4896
L15296 4896
L15324 5177
L15296 5149
L15240 5121
L15099 5121
L15043 5149
L15015 5177
L14987 5233
L14987 5374
L15015 5430
L15043 5458
L15099 5486
L15240 5486
L15296 5458
L15324 5430
" />
<path d="M14818 4896
L14621 5486
L14424 4896
" />
<path d="M15718 5928
L15774 5900
L15858 5900
L15943 5928
L15999 5984
L16027 6040
L16055 6153
L16055 6237
L16027 6350
L15999 6406
L15943 6462
L15858 6490
L15802 6490
L15718 6462
L15690 6434
L15690 6237
L15802 6237
" />
<path d="M15437 6490
L15437 5900
L15099 6490
L15099 5900
" />
<path d="M14818 6490
L14818 5900
L14677 5900
L14593 5928
L14537 5984
L14509 6040
L14480 6153
L14480 6237
L14509 6350
L14537 6406
L14593 6462
L14677 6490
L14818 6490
" />
<path d="M5960 11696
L5623 11696
" />
<path d="M5791 12286
L5791 11696
" />
<path d="M5341 12286
L5398 12258
L5426 12230
L5454 12174
L5454 12005
L5426 11949
L5398 11921
L5341 11893
L5257 11893
L5201 11921
L5173 11949
L5144 12005
L5144 12174
L5173 12230
L5201 12258
L5257 12286
L5341 12286
" />
<path d="M4104 12286
L4301 12005
" />
<path d="M4441 12286
L4441 11696
L4216 11696
L4160 11724
L4132 11752
L4104 11808
L4104 11893
L4132 11949
L4160 11977
L4216 12005
L4441 12005
" />
<path d="M3851 12286
L3851 11696
L3626 11696
L3570 11724
L3542 11752
L3513 11808
L3513 11893
L3542 11949
L3570 11977
L3626 12005
L3851 12005
" />
<path d="M3260 12286
L3260 11893
" />
<path d="M3260 11696
L3288 11724
L3260 11752
L3232 11724
L3260 11696
L3260 11752
" />
<path d="M6219 3896
L6501 3896
L6529 4177
L6501 4149
L6444 4121
L6304 4121
L6248 4149
L6219 4177
L6191 4233
L6191 4374
L6219 4430
L6248 4458
L6304 4486
L6444 4486
L6501 4458
L6529 4430
" />
<path d="M6023 3896
L5826 4486
L5629 3896
" />
<path d="M4898 4486
L4954 4458
L4982 4430
L5010 4374
L5010 4205
L4982 4149
L4954 4121
L4898 4093
L4813 4093
L4757 4121
L4729 4149
L4701 4205
L4701 4374
L4729 4430
L4757 4458
L4813 4486
L4898 4486
" />
<path d="M4448 4093
L4448 4486
" />
<path d="M4448 4149
L4420 4121
L4363 4093
L4279 4093
L4223 4121
L4195 4177
L4195 4486
" />
<path d="M3829 4486
L3885 4458
L3913 4402
L3913 3896
" />
<path d="M3660 4093
L3520 4486
" />
<path d="M3379 4093
L3520 4486
L3576 4627
L3604 4655
L3660 4683
" />
<path d="M13357 18587
L13385 18671
L13385 18812
L13357 18868
L13329 18896
L13273 18924
L13216 18924
L13160 18896
L13132 18868
L13104 18812
L13076 18699
L13048 18643
L13020 18615
L12963 18587
L12907 18587
L12851 18615
L12823 18643
L12795 18699
L12795 18840
L12823 18924
" />
<path d="M13385 19177
L12795 19177
" />
<path d="M13385 19430
L13076 19430
L13020 19402
L12991 19346
L12991 19262
L13020 19205
L13048 19177
" />
<path d="M12991 19965
L13385 19965
" />
<path d="M12991 19711
L13301 19711
L13357 19740
L13385 19796
L13385 19880
L13357 19936
L13329 19965
" />
<path d="M12991 20161
L12991 20386
" />
<path d="M12795 20246
L13301 20246
L13357 20274
L13385 20330
L13385 20386
" />
<path d="M13385 20836
L12795 20836
" />
<path d="M13357 20836
L13385 20780
L13385 20668
L13357 20611
L13329 20583
L13273 20555
L13104 20555
L13048 20583
L13020 20611
L12991 20668
L12991 20780
L13020 20836
" />
<path d="M13385 21202
L13357 21146
L13329 21118
L13273 21089
L13104 21089
L13048 21118
L13020 21146
L12991 21202
L12991 21286
L13020 21343
L13048 21371
L13104 21399
L13273 21399
L13329 21371
L13357 21343
L13385 21286
L13385 21202
" />
<path d="M12991 21596
L13385 21708
L13104 21821
L13385 21933
L12991 22046
" />
<path d="M12991 22271
L13385 22271
" />
<path d="M13048 22271
L13020 22299
L12991 22355
L12991 22439
L13020 22496
L13076 22524
L13385 22524
" />
</g>
<g style="fill:#000000; fill-opacity:0.0; 
stroke:#000000; stroke-width:0; stroke-opacity:1; 
stroke-linecap:round; stroke-linejoin:round;">
</g>
<g style="fill:#000000; fill-opacity:1.0; 
stroke:#000000; stroke-width:0; stroke-opacity:1; 
stroke-linecap:round; stroke-linejoin:round;">
<polyline style="fill-rule:evenodd;"
points="5029,8258
5029,6880
6407,6880
6407,8258
5029,8258
" /> 
<polyline style="fill-rule:evenodd;"
points="2667,8258
2667,6880
4045,6880
4045,8258
2667,8258
" /> 
<polyline style="fill-rule:evenodd;"
points="3848,10109
3848,8731
5226,8731
5226,10109
3848,10109
" /> 
<circle cx="5518.5" cy="17868.9" r="295.276" /> 
</g>
<g style="fill:#000000; fill-opacity:1.0; 
stroke:#000000; stroke-width:39.3701; stroke-opacity:1; 
stroke-linecap:round; stroke-linejoin:round;">
</g>
<g style="fill:#000000; fill-opacity:1.0; 
stroke:#000000; stroke-width:0; stroke-opacity:1; 
stroke-linecap:round; stroke-linejoin:round;">
<circle cx="5518.5" cy="16868.9" r="295.276" /> 
</g>
<g style="fill:#000000; fill-opacity:1.0; 
stroke:#000000; stroke-width:39.3701; stroke-opacity:1; 
stroke-linecap:round; stroke-linejoin:round;">
</g>
<g style="fill:#000000; fill-opacity:1.0; 
stroke:#000000; stroke-width:0; stroke-opacity:1; 
stroke-linecap:round; stroke-linejoin:round;">
<circle cx="5518.5" cy="16069.7" r="295.276" /> 
</g>
<g style="fill:#000000; fill-opacity:1.0; 
stroke:#000000; stroke-width:39.3701; stroke-opacity:1; 
stroke-linecap:round; stroke-linejoin:round;">
</g>
<g style="fill:#000000; fill-opacity:1.0; 
stroke:#000000; stroke-width:0; stroke-opacity:1; 
stroke-linecap:round; stroke-linejoin:round;">
<circle cx="5518.5" cy="15069.7" r="295.276" /> 
</g>
<g style="fill:#000000; fill-opacity:1.0; 
stroke:#000000; stroke-width:39.3701; stroke-opacity:1; 
stroke-linecap:round; stroke-linejoin:round;">
</g>
<g style="fill:#000000; fill-opacity:1.0; 
stroke:#000000; stroke-width:0; stroke-opacity:1; 
stroke-linecap:round; stroke-linejoin:round;">
<circle cx="4467.32" cy="19069.7" r="590.551" /> 
</g>
<g style="fill:#000000; fill-opacity:1.0; 
stroke:#000000; stroke-width:39.3701; stroke-opacity:1; 
stroke-linecap:round; stroke-linejoin:round;">
</g>
<g style="fill:#000000; fill-opacity:1.0; 
stroke:#000000; stroke-width:0; stroke-opacity:1; 
stroke-linecap:round; stroke-linejoin:round;">
<circle cx="4467.32" cy="13668.1" r="590.551" /> 
</g>
<g style="fill:#000000; fill-opacity:1.0; 
stroke:#000000; stroke-width:39.3701; stroke-opacity:1; 
stroke-linecap:round; stroke-linejoin:round;">
</g>
<g style="fill:#000000; fill-opacity:1.0; 
stroke:#000000; stroke-width:0; stroke-opacity:1; 
stroke-linecap:round; stroke-linejoin:round;">
<polyline style="fill-rule:evenodd;"
points="10483,4554
10483,3885
11153,3885
11153,4554
10483,4554
" /> 
</g>
<g style="fill:#000000; fill-opacity:1.0; 
stroke:#000000; stroke-width:669.291; stroke-opacity:1; 
stroke-linecap:round; stroke-linejoin:round;">
</g>
<g style="fill:#000000; fill-opacity:0.0; 
stroke:#000000; stroke-width:669.291; stroke-opacity:1; 
stroke-linecap:round; stroke-linejoin:round;">
<path d="M10818 5219
L10818 5219
" />
<path d="M10818 6219
L10818 6219
" />
</g>
<g style="fill:#000000; fill-opacity:0.0; 
stroke:#000000; stroke-width:0; stroke-opacity:1; 
stroke-linecap:round; stroke-linejoin:round;">
</g>
<g style="fill:#000000; fill-opacity:1.0; 
stroke:#000000; stroke-width:0; stroke-opacity:1; 
stroke-linecap:round; stroke-linejoin:round;">
<polyline style="fill-rule:evenodd;"
points="10483,11954
10483,11285
11153,11285
11153,11954
10483,11954
" /> 
</g>
<g style="fill:#000000; fill-opacity:1.0; 
stroke:#000000; stroke-width:669.291; stroke-opacity:1; 
stroke-linecap:round; stroke-linejoin:round;">
</g>
<g style="fill:#000000; fill-opacity:0.0; 
stroke:#000000; stroke-width:669.291; stroke-opacity:1; 
stroke-linecap:round; stroke-linejoin:round;">
<path d="M10818 12619
L10818 12619
" />
<path d="M10818 13619
L10818 13619
" />
<path d="M10818 14619
L10818 14619
" />
</g>
<g style="fill:#000000; fill-opacity:0.0; 
stroke:#000000; stroke-width:354.331; stroke-opacity:1; 
stroke-linecap:round; stroke-linejoin:round;">
<path d="M30618 8701
L30618 8937
" />
<path d="M30118 8701
L30118 8937
" />
</g>
<g style="fill:#000000; fill-opacity:0.0; 
stroke:#000000; stroke-width:0; stroke-opacity:1; 
stroke-linecap:round; stroke-linejoin:round;">
</g>
<g style="fill:#000000; fill-opacity:1.0; 
stroke:#000000; stroke-width:0; stroke-opacity:1; 
stroke-linecap:round; stroke-linejoin:round;">
<polyline style="fill-rule:evenodd;"
points="30941,9114
30941,8524
31295,8524
31295,9114
30941,9114
" /> 
</g>
<g style="fill:#000000; fill-opacity:1.0; 
stroke:#000000; stroke-width:354.331; stroke-opacity:1; 
stroke-linecap:round; stroke-linejoin:round;">
</g>
<g style="fill:#000000; fill-opacity:0.0; 
stroke:#000000; stroke-width:354.331; stroke-opacity:1; 
stroke-linecap:round; stroke-linejoin:round;">
<path d="M30618 12701
L30618 12937
" />
<path d="M30118 12701
L30118 12937
" />
</g>
<g style="fill:#000000; fill-opacity:0.0; 
stroke:#000000; stroke-width:0; stroke-opacity:1; 
stroke-linecap:round; stroke-linejoin:round;">
</g>
<g style="fill:#000000; fill-opacity:1.0; 
stroke:#000000; stroke-width:0; stroke-opacity:1; 
stroke-linecap:round; stroke-linejoin:round;">
<polyline style="fill-rule:evenodd;"
points="30941,13114
30941,12524
31295,12524
31295,13114
30941,13114
" /> 
</g>
<g style="fill:#000000; fill-opacity:1.0; 
stroke:#000000; stroke-width:354.331; stroke-opacity:1; 
stroke-linecap:round; stroke-linejoin:round;">
</g>
<g style="fill:#000000; fill-opacity:0.0; 
stroke:#000000; stroke-width:354.331; stroke-opacity:1; 
stroke-linecap:round; stroke-linejoin:round;">
<path d="M30618 17201
L30618 17437
" />
<path d="M30118 17201
L30118 17437
" />
</g>
<g style="fill:#000000; fill-opacity:0.0; 
stroke:#000000; stroke-width:0; stroke-opacity:1; 
stroke-linecap:round; stroke-linejoin:round;">
</g>
<g style="fill:#000000; fill-opacity:1.0; 
stroke:#000000; stroke-width:0; stroke-opacity:1; 
stroke-linecap:round; stroke-linejoin:round;">
<polyline style="fill-rule:evenodd;"
points="30941,17614
30941,17024
31295,17024
31295,17614
30941,17614
" /> 
<circle cx="38118.5" cy="8819.69" r="314.961" /> 
</g>
<g style="fill:#000000; fill-opacity:1.0; 
stroke:#000000; stroke-width:39.3701; stroke-opacity:1; 
stroke-linecap:round; stroke-linejoin:round;">
</g>
<g style="fill:#000000; fill-opacity:1.0; 
stroke:#000000; stroke-width:629.921; stroke-opacity:1; 
stroke-linecap:round; stroke-linejoin:round;">
</g>
<g style="fill:#000000; fill-opacity:0.0; 
stroke:#000000; stroke-width:629.921; stroke-opacity:1; 
stroke-linecap:round; stroke-linejoin:round;">
<path d="M35118 8819
L35118 8819
" />
</g>
<g style="fill:#000000; fill-opacity:1.0; 
stroke:#000000; stroke-width:0; stroke-opacity:1; 
stroke-linecap:round; stroke-linejoin:round;">
<circle cx="22368.5" cy="8819.69" r="314.961" /> 
</g>
<g style="fill:#000000; fill-opacity:1.0; 
stroke:#000000; stroke-width:39.3701; stroke-opacity:1; 
stroke-linecap:round; stroke-linejoin:round;">
</g>
<g style="fill:#000000; fill-opacity:1.0; 
stroke:#000000; stroke-width:629.921; stroke-opacity:1; 
stroke-linecap:round; stroke-linejoin:round;">
</g>
<g style="fill:#000000; fill-opacity:0.0; 
stroke:#000000; stroke-width:629.921; stroke-opacity:1; 
stroke-linecap:round; stroke-linejoin:round;">
<path d="M25368 8819
L25368 8819
" />
</g>
<g style="fill:#000000; fill-opacity:1.0; 
stroke:#000000; stroke-width:0; stroke-opacity:1; 
stroke-linecap:round; stroke-linejoin:round;">
<circle cx="38118.5" cy="12819.7" r="314.961" /> 
</g>
<g style="fill:#000000; fill-opacity:1.0; 
stroke:#000000; stroke-width:39.3701; stroke-opacity:1; 
stroke-linecap:round; stroke-linejoin:round;">
</g>
<g style="fill:#000000; fill-opacity:1.0; 
stroke:#000000; stroke-width:629.921; stroke-opacity:1; 
stroke-linecap:round; stroke-linejoin:round;">
</g>
<g style="fill:#000000; fill-opacity:0.0; 
stroke:#000000; stroke-width:629.921; stroke-opacity:1; 
stroke-linecap:round; stroke-linejoin:round;">
<path d="M35118 12819
L35118 12819
" />
</g>
<g style="fill:#000000; fill-opacity:1.0; 
stroke:#000000; stroke-width:0; stroke-opacity:1; 
stroke-linecap:round; stroke-linejoin:round;">
<circle cx="22368.5" cy="12819.7" r="314.961" /> 
</g>
<g style="fill:#000000; fill-opacity:1.0; 
stroke:#000000; stroke-width:39.3701; stroke-opacity:1; 
stroke-linecap:round; stroke-linejoin:round;">
</g>
<g style="fill:#000000; fill-opacity:1.0; 
stroke:#000000; stroke-width:629.921; stroke-opacity:1; 
stroke-linecap:round; stroke-linejoin:round;">
</g>
<g style="fill:#000000; fill-opacity:0.0; 
stroke:#000000; stroke-width:629.921; stroke-opacity:1; 
stroke-linecap:round; stroke-linejoin:round;">
<path d="M25368 12819
L25368 12819
" />
</g>
<g style="fill:#000000; fill-opacity:1.0; 
stroke:#000000; stroke-width:0; stroke-opacity:1; 
stroke-linecap:round; stroke-linejoin:round;">
<circle cx="38118.5" cy="17319.7" r="314.961" /> 
</g>
<g style="fill:#000000; fill-opacity:1.0; 
stroke:#000000; stroke-width:39.3701; stroke-opacity:1; 
stroke-linecap:round; stroke-linejoin:round;">
</g>
<g style="fill:#000000; fill-opacity:1.0; 
stroke:#000000; stroke-width:629.921; stroke-opacity:1; 
stroke-linecap:round; stroke-linejoin:round;">
</g>
<g style="fill:#000000; fill-opacity:0.0; 
stroke:#000000; stroke-width:629.921; stroke-opacity:1; 
stroke-linecap:round; stroke-linejoin:round;">
<path d="M35118 17319
L35118 17319
" />
</g>
<g style="fill:#000000; fill-opacity:1.0; 
stroke:#000000; stroke-width:0; stroke-opacity:1; 
stroke-linecap:round; stroke-linejoin:round;">
<circle cx="22368.5" cy="17319.7" r="314.961" /> 
</g>
<g style="fill:#000000; fill-opacity:1.0; 
stroke:#000000; stroke-width:39.3701; stroke-opacity:1; 
stroke-linecap:round; stroke-linejoin:round;">
</g>
<g style="fill:#000000; fill-opacity:1.0; 
stroke:#000000; stroke-width:629.921; stroke-opacity:1; 
stroke-linecap:round; stroke-linejoin:round;">
</g>
<g style="fill:#000000; fill-opacity:0.0; 
stroke:#000000; stroke-width:629.921; stroke-opacity:1; 
stroke-linecap:round; stroke-linejoin:round;">
<path d="M25368 17319
L25368 17319
" />
</g>
<g style="fill:#000000; fill-opacity:1.0; 
stroke:#000000; stroke-width:0; stroke-opacity:1; 
stroke-linecap:round; stroke-linejoin:round;">
<circle cx="10818.5" cy="19485.4" r="354.331" /> 
</g>
<g style="fill:#000000; fill-opacity:1.0; 
stroke:#000000; stroke-width:39.3701; stroke-opacity:1; 
stroke-linecap:round; stroke-linejoin:round;">
</g>
<g style="fill:#000000; fill-opacity:1.0; 
stroke:#000000; stroke-width:0; stroke-opacity:1; 
stroke-linecap:round; stroke-linejoin:round;">
<circle cx="10818.5" cy="21453.9" r="354.331" /> 
</g>
<g style="fill:#000000; fill-opacity:1.0; 
stroke:#000000; stroke-width:39.3701; stroke-opacity:1; 
stroke-linecap:round; stroke-linejoin:round;">
</g>
<g style="fill:#000000; fill-opacity:1.0; 
stroke:#000000; stroke-width:680; stroke-opacity:1; 
stroke-linecap:round; stroke-linejoin:round;">
</g>
<g style="fill:#000000; fill-opacity:0.0; 
stroke:#000000; stroke-width:680; stroke-opacity:1; 
stroke-linecap:round; stroke-linejoin:round;">
<path d="M34833 22159
L34833 22159
" />
<path d="M32833 22159
L32833 22159
" />
<path d="M31833 22159
L31833 22159
" />
<path d="M30833 22159
L30833 22159
" />
<path d="M29833 22159
L29833 22159
" />
<path d="M28833 22159
L28833 22159
" />
<path d="M27833 22159
L27833 22159
" />
<path d="M39833 3159
L39833 3159
" />
<path d="M38833 3159
L38833 3159
" />
<path d="M37833 3159
L37833 3159
" />
<path d="M36833 3159
L36833 3159
" />
<path d="M35833 3159
L35833 3159
" />
<path d="M34833 3159
L34833 3159
" />
<path d="M33833 3159
L33833 3159
" />
<path d="M32833 3159
L32833 3159
" />
<path d="M25233 3159
L25233 3159
" />
<path d="M31233 3159
L31233 3159
" />
<path d="M30233 3159
L30233 3159
" />
<path d="M29233 3159
L29233 3159
" />
<path d="M24233 3159
L24233 3159
" />
<path d="M26233 3159
L26233 3159
" />
<path d="M27233 3159
L27233 3159
" />
<path d="M28233 3159
L28233 3159
" />
<path d="M35833 22159
L35833 22159
" />
<path d="M36833 22159
L36833 22159
" />
<path d="M37833 22159
L37833 22159
" />
<path d="M38833 22159
L38833 22159
" />
<path d="M39833 22159
L39833 22159
" />
</g>
<g style="fill:#000000; fill-opacity:1.0; 
stroke:#000000; stroke-width:0; stroke-opacity:1; 
stroke-linecap:round; stroke-linejoin:round;">
<circle cx="19968.5" cy="8819.69" r="492.126" /> 
</g>
<g style="fill:#000000; fill-opacity:1.0; 
stroke:#000000; stroke-width:39.3701; stroke-opacity:1; 
stroke-linecap:round; stroke-linejoin:round;">
</g>
<g style="fill:#000000; fill-opacity:1.0; 
stroke:#000000; stroke-width:0; stroke-opacity:1; 
stroke-linecap:round; stroke-linejoin:round;">
<circle cx="16768.5" cy="8819.69" r="492.126" /> 
</g>
<g style="fill:#000000; fill-opacity:1.0; 
stroke:#000000; stroke-width:39.3701; stroke-opacity:1; 
stroke-linecap:round; stroke-linejoin:round;">
</g>
<g style="fill:#000000; fill-opacity:1.0; 
stroke:#000000; stroke-width:590.551; stroke-opacity:1; 
stroke-linecap:round; stroke-linejoin:round;">
</g>
<g style="fill:#000000; fill-opacity:0.0; 
stroke:#000000; stroke-width:590.551; stroke-opacity:1; 
stroke-linecap:round; stroke-linejoin:round;">
<path d="M8968 5219
L8968 3469
" />
<path d="M42618 4319
L38118 8819
" />
<path d="M42618 2569
L42618 4319
" />
<path d="M41118 1069
L42618 2569
" />
<path d="M11368 1069
L41118 1069
" />
<path d="M8968 3469
L11368 1069
" />
<path d="M29833 22159
L29833 21354
" />
<path d="M29833 21354
L30618 20569
" />
<path d="M30618 20569
L34868 20569
" />
<path d="M32833 22159
L33278 22159
" />
<path d="M33278 22159
L34868 20569
" />
<path d="M34868 20569
L38118 17319
" />
</g>
<g style="fill:#000000; fill-opacity:0.0; 
stroke:#000000; stroke-width:236.22; stroke-opacity:1; 
stroke-linecap:round; stroke-linejoin:round;">
<path d="M38118 12819
L38118 17319
" />
<path d="M38118 8819
L38118 12819
" />
</g>
<g style="fill:#000000; fill-opacity:0.0; 
stroke:#000000; stroke-width:590.551; stroke-opacity:1; 
stroke-linecap:round; stroke-linejoin:round;">
<path d="M6618 7569
L6618 7619
" />
<path d="M7318 13269
L5518 15069
" />
<path d="M7318 8319
L7318 13269
" />
<path d="M6618 7619
L7318 8319
" />
<path d="M5718 7569
L6618 7569
" />
<path d="M8968 5219
L10818 5219
" />
<path d="M6618 7569
L8968 5219
" />
<path d="M10818 4219
L12368 4219
" />
<path d="M19968 8819
L22368 8819
" />
<path d="M14368 8819
L16768 8819
" />
<path d="M13168 7619
L14368 8819
" />
<path d="M13168 5019
L13168 7619
" />
<path d="M12368 4219
L13168 5019
" />
</g>
<g style="fill:#000000; fill-opacity:0.0; 
stroke:#000000; stroke-width:236.22; stroke-opacity:1; 
stroke-linecap:round; stroke-linejoin:round;">
<path d="M22368 8819
L23868 7319
" />
<path d="M30618 7819
L30618 8819
" />
<path d="M30118 7319
L30618 7819
" />
<path d="M23868 7319
L30118 7319
" />
<path d="M28833 22159
L28833 21104
" />
<path d="M30618 19319
L30618 17319
" />
<path d="M28833 21104
L30618 19319
" />
<path d="M22368 12819
L22368 17319
" />
<path d="M22368 8819
L22368 12819
" />
<path d="M30618 12819
L30618 17319
" />
<path d="M30618 8819
L30618 12819
" />
</g>
<g style="fill:#000000; fill-opacity:0.0; 
stroke:#000000; stroke-width:393.701; stroke-opacity:1; 
stroke-linecap:round; stroke-linejoin:round;">
<path d="M10818 11619
L10168 11619
" />
<path d="M10818 16269
L10818 19485
" />
<path d="M9618 15069
L10818 16269
" />
<path d="M9618 12169
L9618 15069
" />
<path d="M10168 11619
L9618 12169
" />
<path d="M10818 19485
L10784 19485
" />
</g>
<g style="fill:#000000; fill-opacity:0.0; 
stroke:#000000; stroke-width:236.22; stroke-opacity:1; 
stroke-linecap:round; stroke-linejoin:round;">
<path d="M25368 8819
L25368 9319
" />
<path d="M20668 12619
L10818 12619
" />
<path d="M21118 13069
L20668 12619
" />
<path d="M21118 18069
L21118 13069
" />
<path d="M21618 18569
L21118 18069
" />
<path d="M22868 18569
L21618 18569
" />
<path d="M23368 18069
L22868 18569
" />
<path d="M23368 11319
L23368 18069
" />
<path d="M25368 9319
L23368 11319
" />
<path d="M25368 8819
L30118 8819
" />
<path d="M25368 12819
L24618 12819
" />
<path d="M19918 13619
L10818 13619
" />
<path d="M20368 14069
L19918 13619
" />
<path d="M20368 18319
L20368 14069
" />
<path d="M21368 19319
L20368 18319
" />
<path d="M23118 19319
L21368 19319
" />
<path d="M24118 18319
L23118 19319
" />
<path d="M24118 13319
L24118 18319
" />
<path d="M24618 12819
L24118 13319
" />
<path d="M25368 12819
L30118 12819
" />
<path d="M25368 17319
L25368 18319
" />
<path d="M19168 14619
L10818 14619
" />
<path d="M19618 15069
L19168 14619
" />
<path d="M19618 19069
L19618 15069
" />
<path d="M20618 20069
L19618 19069
" />
<path d="M23618 20069
L20618 20069
" />
<path d="M25368 18319
L23618 20069
" />
<path d="M25368 17319
L30118 17319
" />
<path d="M31118 8819
L31118 5569
" />
<path d="M30233 4684
L30233 3159
" />
<path d="M31118 5569
L30233 4684
" />
<path d="M31118 8819
L35118 8819
" />
<path d="M39833 3159
L39833 4104
" />
<path d="M35868 12069
L35118 12819
" />
<path d="M35868 6819
L35868 12069
" />
<path d="M36368 6319
L35868 6819
" />
<path d="M37618 6319
L36368 6319
" />
<path d="M39833 4104
L37618 6319
" />
<path d="M31118 12819
L35118 12819
" />
<path d="M38833 3159
L38833 2104
" />
<path d="M36618 15819
L35118 17319
" />
<path d="M36618 7819
L36618 15819
" />
<path d="M37118 7319
L36618 7819
" />
<path d="M37868 7319
L37118 7319
" />
<path d="M41368 3819
L37868 7319
" />
<path d="M41368 2569
L41368 3819
" />
<path d="M40618 1819
L41368 2569
" />
<path d="M39118 1819
L40618 1819
" />
<path d="M38833 2104
L39118 1819
" />
<path d="M31118 17319
L35118 17319
" />
</g>
<g style="fill:#000000; fill-opacity:1.0; 
stroke:#000000; stroke-width:100; stroke-opacity:1; 
stroke-linecap:round; stroke-linejoin:round;">
<polyline style="fill-rule:evenodd;"
points="44098,25450
1988,25450
1988,20595
3145,20595
3145,23103
8791,23103
8791,21872
10470,21872
10503,21972
10610,22024
10725,22054
10844,22060
10962,22043
11074,22004
11133,21972
11166,21872
10818,21524
10470,21872
8791,21872
8791,21480
10211,21480
10228,21597
10268,21710
10299,21769
10399,21802
10747,21453
10889,21453
11237,21802
11337,21769
11389,21661
11418,21546
11425,21427
11408,21309
11368,21197
11337,21138
11237,21105
10889,21453
10747,21453
10399,21105
10299,21138
10247,21245
10218,21361
10211,21480
8791,21480
8791,21035
10470,21035
10818,21383
11166,21035
11133,20934
11026,20883
10911,20853
10792,20847
10674,20864
10562,20903
10503,20934
10470,21035
8791,21035
8791,20595
3145,20595
1988,20595
1988,19140
3625,19140
3655,19302
3716,19455
3805,19594
3919,19712
4055,19806
4206,19872
4367,19908
4532,19911
4694,19883
4848,19823
4987,19735
5106,19621
5201,19486
5268,19336
5305,19175
5307,18987
5275,18825
5213,18673
5121,18535
5005,18418
4869,18326
4717,18262
4633,18245
5212,18245
5238,18339
5335,18385
5439,18411
5547,18416
5653,18399
5754,18363
5798,18339
5824,18245
5518,17939
5212,18245
4633,18245
4555,18229
4390,18228
4228,18259
4076,18321
3938,18411
3820,18526
3727,18662
3662,18814
3627,18975
3625,19140
1988,19140
1988,17897
4971,17897
4987,18003
5023,18104
5047,18149
5141,18174
5447,17868
5589,17868
5895,18174
5989,18149
6034,18051
6060,17947
6065,17840
6049,17734
6013,17633
5989,17588
5895,17562
5589,17868
5447,17868
5141,17562
5047,17588
5002,17685
4976,17790
4971,17897
1988,17897
1988,13738
3625,13738
3655,13900
3716,14054
3805,14192
3919,14311
4055,14405
4206,14471
4367,14506
4532,14510
4694,14481
4848,14422
4987,14333
5106,14220
5201,14085
5268,13934
5305,13773
5307,13585
5275,13423
5213,13271
5121,13134
5005,13017
4869,12925
4717,12861
4555,12828
4390,12826
4228,12857
4076,12919
3938,13009
3820,13125
3727,13261
3662,13412
3627,13573
3625,13738
1988,13738
1988,11297
2870,11297
2870,12801
6266,12801
6266,11297
2870,11297
1988,11297
1988,7682
2417,7682
2417,8283
2426,8331
2445,8377
2473,8418
2507,8452
2548,8480
2594,8499
2642,8508
3243,8508
3306,8446
3306,7619
3406,7619
3406,8446
3468,8508
3733,8508
3682,8542
3636,8596
3607,8661
3597,8731
3597,10109
3600,10148
3621,10216
3660,10275
3713,10321
3778,10350
3848,10360
5226,10360
5266,10357
5333,10336
5392,10297
5438,10243
5467,10179
5477,10109
5477,8731
5474,8691
5453,8623
5414,8564
5360,8518
5340,8509
6407,8509
6447,8506
6514,8485
6573,8446
6619,8393
6620,8392
6773,8545
6773,13043
5136,14680
5098,14717
5038,14805
4996,14904
4974,15008
4972,15115
4991,15220
5031,15320
5089,15410
5163,15486
5251,15547
5300,15569
5264,15584
5175,15642
5098,15717
5038,15805
4996,15904
4974,16008
4972,16115
4991,16220
5031,16320
5089,16410
5146,16469
5098,16516
5038,16604
4996,16703
4974,16807
4972,16914
4991,17019
5031,17119
5089,17209
5163,17286
5251,17347
5299,17368
5282,17374
5238,17398
5212,17492
5518,17798
5824,17492
5798,17398
5736,17369
5765,17357
5855,17300
5933,17226
5994,17139
6038,17041
6062,16937
6063,16815
6043,16710
6002,16611
5943,16522
5889,16469
5933,16427
5994,16340
6038,16242
6062,16138
6063,16016
6043,15911
6002,15812
5943,15723
5867,15647
5779,15587
5736,15569
5765,15558
5855,15501
5933,15427
5937,15422
7704,13655
7736,13616
7768,13577
7769,13575
7771,13573
7795,13528
7819,13484
7820,13481
7821,13479
7836,13431
7851,13383
7852,13380
7853,13377
7858,13327
7863,13277
7863,13271
7863,13271
7863,13271
7863,13269
7863,10697
11718,10697
11718,12201
18348,12201
18348,10697
11718,10697
7863,10697
7863,8319
7858,8269
7854,8219
7853,8216
7853,8213
7838,8165
7824,8117
7823,8114
7822,8111
7798,8067
7775,8022
7774,8020
7772,8017
7740,7978
7709,7939
7705,7935
7705,7935
7705,7935
7704,7934
7364,7594
8599,6360
10250,6360
10268,6418
10317,6521
10386,6613
10471,6690
10569,6748
10677,6787
10768,6739
10768,6269
10868,6269
10868,6739
10959,6787
11067,6748
11165,6690
11250,6613
11319,6521
11368,6418
11386,6360
11338,6269
10868,6269
10768,6269
10298,6269
10250,6360
8599,6360
9194,5764
10453,5764
10386,5825
10317,5917
10268,6021
10250,6079
10298,6169
10768,6169
10768,6161
10868,6161
10868,6169
11338,6169
11386,6079
11368,6021
11319,5917
11250,5825
11165,5749
11118,5720
11144,5706
11233,5634
11306,5546
11360,5446
11394,5337
11405,5223
11395,5110
11363,5000
11310,4899
11239,4810
11219,4794
11260,4781
11285,4764
12142,4764
12623,5245
12623,7619
12628,7669
12632,7719
12633,7722
12633,7725
12648,7773
12662,7822
12663,7824
12664,7827
12688,7871
12711,7916
12712,7918
12714,7921
12746,7960
12777,7999
12781,8003
12781,8003
12781,8003
12782,8005
13982,9205
14021,9237
14060,9269
14062,9270
14065,9272
14109,9296
14153,9320
14156,9321
14158,9323
14207,9337
14255,9353
14257,9353
14260,9354
14310,9359
14360,9364
14366,9364
14366,9364
14366,9364
14368,9364
16263,9364
16285,9387
16404,9470
16538,9528
16680,9560
16825,9563
16969,9537
17104,9485
17227,9407
17333,9306
17416,9188
17476,9055
17508,8913
17510,8746
17482,8604
17426,8469
17346,8348
17243,8245
17123,8163
16989,8107
16846,8078
16700,8077
16557,8104
16423,8158
16301,8238
16264,8274
14594,8274
13713,7393
13713,5019
13708,4969
13704,4919
13703,4916
13703,4913
13688,4865
13674,4817
13673,4814
13672,4811
13648,4767
13625,4722
13624,4720
13622,4717
13590,4678
13559,4639
13555,4635
13555,4635
13555,4635
13554,4634
12754,3834
12715,3802
12676,3769
12674,3768
12671,3766
12627,3742
12583,3718
12580,3717
12578,3716
12529,3701
12481,3686
12479,3686
12476,3685
12426,3680
12376,3674
12370,3674
12370,3674
12370,3674
12368,3674
11289,3674
11287,3672
11223,3643
11153,3633
10483,3633
10444,3637
10376,3657
10317,3696
10271,3750
10242,3815
10232,3885
10232,4554
10235,4594
10256,4661
10265,4674
9513,4674
9513,3695
9716,3493
14118,3493
14118,7005
16980,7005
16980,3493
14118,3493
9716,3493
9975,3233
19952,3233
19983,3403
20047,3563
20140,3708
20260,3833
20402,3931
20560,4000
20728,4037
20901,4041
21071,4011
21232,3948
21377,3856
21502,3737
21602,3596
21672,3438
21710,3270
21712,3155
23640,3155
23651,3270
23683,3380
23736,3482
23809,3572
23897,3646
23998,3701
24107,3736
24222,3749
24230,3749
24236,3749
24350,3738
24461,3705
24562,3651
24652,3578
24725,3489
24734,3472
24797,3557
24883,3634
24983,3693
25092,3732
25183,3685
25183,3209
25175,3209
25175,3109
25183,3109
25183,2634
25092,2586
24983,2625
24883,2684
24797,2761
24734,2845
24730,2836
24657,2746
24569,2672
24468,2617
24359,2582
24244,2569
24236,2569
24230,2569
24116,2580
24005,2614
23904,2668
23814,2741
23741,2829
23686,2931
23652,3041
23640,3155
21712,3155
21713,3073
21679,2904
21614,2744
21518,2600
21397,2478
21254,2381
21094,2315
20925,2280
20753,2279
20583,2311
20423,2376
20279,2470
20156,2591
20058,2733
19990,2892
19954,3061
19952,3233
9975,3233
11594,1614
38802,1614
38573,1844
38551,1870
38529,1896
38528,1898
38527,1899
38511,1929
38495,1959
38494,1961
38493,1963
38483,1995
38473,2028
38473,2030
38472,2031
38469,2065
38465,2099
38465,2103
38465,2103
38465,2103
38465,2104
38465,2699
38414,2741
38341,2829
38333,2843
38330,2836
38257,2746
38169,2672
38068,2617
37959,2582
37844,2569
37836,2569
37830,2569
37716,2580
37605,2614
37504,2668
37414,2741
37341,2829
37333,2843
37330,2836
37257,2746
37169,2672
37068,2617
36959,2582
36844,2569
36836,2569
36830,2569
36716,2580
36605,2614
36504,2668
36414,2741
36341,2829
36333,2843
36330,2836
36257,2746
36169,2672
36068,2617
35959,2582
35844,2569
35836,2569
35830,2569
35716,2580
35605,2614
35504,2668
35414,2741
35341,2829
35333,2843
35330,2836
35257,2746
35169,2672
35068,2617
34959,2582
34844,2569
34836,2569
34830,2569
34716,2580
34605,2614
34504,2668
34414,2741
34341,2829
34333,2843
34330,2836
34257,2746
34169,2672
34068,2617
33959,2582
33844,2569
33836,2569
33830,2569
33716,2580
33605,2614
33504,2668
33414,2741
33341,2829
33333,2843
33330,2836
33257,2746
33169,2672
33068,2617
32959,2582
32844,2569
32836,2569
32830,2569
32716,2580
32605,2614
32504,2668
32414,2741
32341,2829
32286,2931
32252,3041
32240,3155
32251,3270
32283,3380
32336,3482
32409,3572
32497,3646
32598,3701
32707,3736
32822,3749
32830,3749
32836,3749
32950,3738
33061,3705
33162,3651
33252,3578
33325,3489
33333,3475
33336,3482
33409,3572
33497,3646
33598,3701
33707,3736
33822,3749
33830,3749
33836,3749
33950,3738
34061,3705
34162,3651
34252,3578
34325,3489
34333,3475
34336,3482
34409,3572
34497,3646
34598,3701
34707,3736
34822,3749
34830,3749
34836,3749
34950,3738
35061,3705
35162,3651
35252,3578
35325,3489
35333,3475
35336,3482
35409,3572
35497,3646
35598,3701
35707,3736
35822,3749
35830,3749
35836,3749
35950,3738
36061,3705
36162,3651
36252,3578
36325,3489
36333,3475
36336,3482
36409,3572
36497,3646
36598,3701
36707,3736
36822,3749
36830,3749
36836,3749
36950,3738
37061,3705
37162,3651
37252,3578
37325,3489
37333,3475
37336,3482
37409,3572
37497,3646
37598,3701
37707,3736
37822,3749
37830,3749
37836,3749
37950,3738
38061,3705
38162,3651
38252,3578
38325,3489
38333,3475
38336,3482
38409,3572
38497,3646
38598,3701
38707,3736
38822,3749
38830,3749
38836,3749
38950,3738
39061,3705
39162,3651
39252,3578
39325,3489
39333,3475
39336,3482
39409,3572
39465,3619
39465,3952
37466,5951
36368,5951
36334,5954
36300,5957
36298,5958
36297,5958
36264,5968
36231,5977
36230,5978
36228,5979
36198,5995
36168,6010
36166,6012
36164,6013
36138,6034
36111,6055
36109,6058
36109,6058
36109,6058
36108,6059
35608,6559
35586,6585
35564,6611
35563,6613
35562,6614
35546,6644
35530,6674
35529,6676
35528,6678
35518,6710
35508,6743
35508,6745
35507,6746
35504,6780
35500,6814
35500,6818
35500,6818
35500,6818
35500,6819
35500,8403
35440,8353
35343,8300
35238,8267
35129,8254
35121,8254
35115,8254
35006,8265
34900,8297
34803,8349
34717,8418
34690,8451
31533,8451
31522,8417
31486,8362
31486,5569
31483,5535
31480,5501
31479,5500
31479,5498
31469,5465
31460,5432
31459,5431
31458,5429
31442,5399
31427,5369
31426,5367
31425,5365
31403,5339
31382,5313
31379,5310
31379,5310
31379,5310
31378,5309
30601,4532
30601,3619
30652,3578
30725,3489
30733,3475
30736,3482
30809,3572
30897,3646
30998,3701
31107,3736
31222,3749
31230,3749
31236,3749
31350,3738
31461,3705
31562,3651
31652,3578
31725,3489
31780,3388
31814,3278
31826,3163
31815,3049
31783,2938
31730,2836
31657,2746
31569,2672
31468,2617
31359,2582
31244,2569
31236,2569
31230,2569
31116,2580
31005,2614
30904,2668
30814,2741
30741,2829
30733,2843
30730,2836
30657,2746
30569,2672
30468,2617
30359,2582
30244,2569
30236,2569
30230,2569
30116,2580
30005,2614
29904,2668
29814,2741
29741,2829
29733,2843
29730,2836
29657,2746
29569,2672
29468,2617
29359,2582
29244,2569
29236,2569
29230,2569
29116,2580
29005,2614
28904,2668
28814,2741
28741,2829
28733,2843
28730,2836
28657,2746
28569,2672
28468,2617
28359,2582
28244,2569
28236,2569
28230,2569
28116,2580
28005,2614
27904,2668
27814,2741
27741,2829
27733,2843
27730,2836
27657,2746
27569,2672
27468,2617
27359,2582
27244,2569
27236,2569
27230,2569
27116,2580
27005,2614
26904,2668
26814,2741
26741,2829
26733,2843
26730,2836
26657,2746
26569,2672
26468,2617
26359,2582
26244,2569
26236,2569
26230,2569
26116,2580
26005,2614
25904,2668
25814,2741
25741,2829
25732,2846
25669,2761
25583,2684
25483,2625
25374,2586
25283,2634
25283,3109
25291,3109
25291,3209
25283,3209
25283,3685
25374,3732
25483,3693
25583,3634
25669,3557
25732,3473
25736,3482
25809,3572
25897,3646
25998,3701
26107,3736
26222,3749
26230,3749
26236,3749
26350,3738
26461,3705
26562,3651
26652,3578
26725,3489
26733,3475
26736,3482
26809,3572
26897,3646
26998,3701
27107,3736
27222,3749
27230,3749
27236,3749
27350,3738
27461,3705
27562,3651
27652,3578
27725,3489
27733,3475
27736,3482
27809,3572
27897,3646
27998,3701
28107,3736
28222,3749
28230,3749
28236,3749
28350,3738
28461,3705
28562,3651
28652,3578
28725,3489
28733,3475
28736,3482
28809,3572
28897,3646
28998,3701
29107,3736
29222,3749
29230,3749
29236,3749
29350,3738
29461,3705
29562,3651
29652,3578
29725,3489
29733,3475
29736,3482
29809,3572
29865,3619
29865,4684
29868,4718
29871,4752
29872,4754
29872,4756
29882,4788
29891,4821
29892,4823
29893,4824
29909,4854
29924,4885
29925,4886
29926,4888
29948,4914
29969,4941
29972,4944
29972,4944
29972,4944
29973,4944
30750,5722
30750,7430
30378,7059
30352,7037
30326,7015
30324,7015
30323,7013
30293,6997
30263,6981
30261,6980
30259,6979
30227,6969
30195,6959
30193,6959
30191,6958
30157,6955
30123,6951
30119,6951
30119,6951
30119,6951
30118,6951
23868,6951
23834,6954
23800,6957
23798,6958
23797,6958
23764,6968
23731,6977
23730,6978
23728,6979
23698,6995
23668,7010
23666,7012
23664,7013
23638,7034
23611,7055
23609,7058
23609,7058
23609,7058
23608,7059
22412,8254
22317,8254
22211,8274
20472,8274
20443,8245
20323,8163
20189,8107
20046,8078
19900,8077
19757,8104
19623,8158
19501,8238
19397,8340
19315,8460
19257,8594
19227,8736
19225,8882
19251,9025
19305,9160
19384,9282
19485,9387
19604,9470
19738,9528
19880,9560
20025,9563
20169,9537
20304,9485
20427,9407
20472,9364
22000,9364
22000,12389
21933,12454
21871,12546
21827,12648
21804,12756
21802,12867
21822,12976
21863,13079
21923,13172
22000,13251
22000,16889
21933,16954
21871,17046
21827,17148
21804,17256
21802,17367
21822,17476
21863,17579
21923,17672
22000,17752
22091,17815
22193,17859
22301,17883
22412,17885
22521,17866
22624,17826
22718,17767
22798,17690
22862,17600
22907,17498
22931,17390
22933,17264
22911,17155
22869,17053
22808,16960
22736,16888
22736,13249
22798,13190
22862,13100
22907,12998
22931,12890
22933,12764
22911,12655
22869,12553
22808,12460
22736,12388
22736,9249
22798,9190
22862,9100
22907,8998
22931,8890
22933,8775
24020,7687
29966,7687
30250,7972
30250,8294
30204,8280
30121,8271
30038,8279
29958,8302
29884,8341
29819,8393
29771,8451
25796,8451
25774,8424
25690,8353
25593,8300
25488,8267
25379,8254
25371,8254
25365,8254
25256,8265
25150,8297
25053,8349
24967,8418
24897,8503
24844,8600
24812,8706
24800,8815
24810,8925
24841,9031
24893,9129
24957,9209
23108,11059
23086,11085
23064,11111
23063,11113
23062,11114
23046,11144
23030,11174
23029,11176
23028,11178
23018,11210
23008,11243
23008,11245
23007,11246
23004,11280
23000,11314
23000,11318
23000,11318
23000,11318
23000,11319
23000,17917
22716,18201
21770,18201
21486,17917
21486,13069
21483,13035
21480,13001
21479,13000
21479,12998
21469,12965
21460,12932
21459,12931
21458,12929
21442,12899
21427,12869
21426,12867
21425,12865
21403,12839
21382,12813
21379,12810
21379,12810
21379,12810
21378,12809
20928,12359
20902,12337
20876,12315
20874,12315
20873,12313
20843,12297
20813,12281
20811,12280
20809,12279
20777,12269
20745,12259
20743,12259
20741,12258
20707,12255
20673,12251
20669,12251
20669,12251
20669,12251
20668,12251
11271,12251
11239,12210
11219,12194
11260,12181
11319,12142
11365,12088
11394,12024
11404,11954
11404,11285
11401,11245
11380,11177
11341,11118
11287,11072
11223,11043
11153,11033
10483,11033
10444,11037
10376,11057
10317,11096
10271,11150
10261,11172
10168,11172
10127,11176
10086,11180
10084,11181
10081,11181
10042,11193
10002,11204
10000,11205
9998,11206
9961,11225
9925,11244
9923,11246
9921,11247
9889,11273
9856,11299
9853,11302
9853,11302
9853,11302
9852,11303
9302,11853
9276,11885
9249,11917
9248,11919
9247,11921
9227,11957
9207,11993
9207,11995
9205,11997
9193,12037
9181,12076
9181,12079
9180,12081
9176,12122
9171,12163
9171,12168
9171,12168
9171,12168
9171,12169
9171,15069
9175,15110
9179,15151
9179,15154
9180,15156
9192,15195
9203,15235
9204,15237
9205,15239
9224,15276
9243,15313
9245,15314
9246,15316
9272,15348
9298,15381
9301,15384
9301,15384
9301,15384
9302,15385
10371,16454
10371,19077
10353,19095
10286,19192
10239,19301
10215,19417
10213,19536
10234,19652
10278,19763
10342,19862
10424,19947
10522,20015
10630,20062
10746,20088
10865,20090
10981,20070
11092,20027
11192,19963
11278,19882
11346,19785
11394,19677
11420,19561
11422,19426
11399,19309
11354,19200
11289,19101
11265,19077
11265,18224
12396,18224
12396,22914
13900,22914
13900,22233
19452,22233
19483,22403
19547,22563
19640,22708
19760,22833
19902,22931
20060,23000
20228,23037
20401,23041
20571,23011
20732,22948
20877,22856
21002,22737
21102,22596
21172,22438
21210,22270
21213,22073
21179,21904
21114,21744
21018,21600
20897,21478
20754,21381
20594,21315
20425,21280
20253,21279
20083,21311
19923,21376
19779,21470
19656,21591
19558,21733
19490,21892
19454,22061
19452,22233
13900,22233
13900,18224
12396,18224
11265,18224
11265,16269
11261,16228
11257,16187
11257,16185
11256,16182
11244,16143
11233,16103
11232,16101
11231,16099
11212,16062
11193,16026
11191,16024
11190,16022
11164,15990
11138,15958
11135,15954
11135,15954
11135,15954
11134,15953
10065,14884
10065,12354
10297,12122
10349,12166
10413,12195
10414,12195
10403,12204
10330,12292
10276,12393
10242,12502
10231,12615
10241,12729
10273,12838
10326,12939
10397,13028
10485,13102
10517,13119
10492,13132
10403,13204
10330,13292
10276,13393
10242,13502
10231,13615
10241,13729
10273,13838
10326,13939
10397,14028
10485,14102
10517,14119
10492,14132
10403,14204
10330,14292
10276,14393
10242,14502
10231,14615
10241,14729
10273,14838
10326,14939
10397,15028
10485,15102
10585,15157
10694,15191
10807,15204
10815,15204
10821,15204
10934,15193
11044,15160
11144,15106
11233,15034
11271,14987
19016,14987
19250,15222
19250,19069
19253,19103
19256,19137
19257,19139
19257,19141
19267,19173
19276,19206
19277,19208
19278,19209
19294,19239
19309,19270
19310,19271
19311,19273
19333,19299
19354,19326
19357,19329
19357,19329
19357,19329
19358,19329
20358,20329
20384,20351
20410,20373
20412,20374
20413,20375
20443,20391
20473,20408
20475,20408
20477,20409
20509,20419
20541,20429
20543,20429
20545,20430
20579,20433
20613,20437
20617,20437
20617,20437
20617,20437
20618,20437
23618,20437
23652,20434
23686,20431
23688,20430
23690,20430
23722,20420
23755,20411
23756,20410
23758,20410
23788,20394
23818,20378
23820,20377
23822,20376
23848,20354
23875,20333
23877,20330
23877,20330
23877,20330
23878,20329
25628,18579
25650,18553
25672,18527
25673,18525
25674,18524
25690,18494
25706,18464
25707,18462
25708,18461
25718,18428
25728,18396
25728,18394
25729,18392
25732,18358
25736,18324
25736,18321
25736,18320
25736,18320
25736,18319
25736,17747
25769,17720
25796,17687
29771,17687
29815,17741
29879,17794
29952,17834
30032,17858
30115,17867
30198,17860
30250,17844
30250,19167
28573,20844
28551,20870
28529,20896
28528,20898
28527,20899
28511,20929
28495,20959
28494,20961
28493,20963
28483,20995
28473,21028
28473,21030
28472,21031
28469,21065
28465,21099
28465,21103
28465,21103
28465,21103
28465,21104
28465,21699
28414,21741
28341,21829
28333,21843
28330,21836
28257,21746
28169,21672
28068,21617
27959,21582
27844,21569
27836,21569
27830,21569
27716,21580
27605,21614
27504,21668
27414,21741
27341,21829
27286,21931
27252,22041
27240,22155
27251,22270
27283,22380
27336,22482
27409,22572
27497,22646
27598,22701
27707,22736
27822,22749
27830,22749
27836,22749
27950,22738
28061,22705
28162,22651
28252,22578
28325,22489
28333,22475
28336,22482
28409,22572
28497,22646
28598,22701
28707,22736
28822,22749
28830,22749
28836,22749
28950,22738
29061,22705
29162,22651
29252,22578
29325,22489
29333,22475
29336,22482
29409,22572
29497,22646
29598,22701
29707,22736
29822,22749
29830,22749
29836,22749
29950,22738
30061,22705
30162,22651
30252,22578
30325,22489
30334,22472
30397,22557
30483,22634
30583,22693
30692,22732
30783,22685
30783,22209
30883,22209
30883,22685
30974,22732
31083,22693
31183,22634
31269,22557
31333,22471
31397,22557
31483,22634
31583,22693
31692,22732
31783,22685
31783,22209
30883,22209
30783,22209
30775,22209
30775,22109
30783,22109
30783,21634
30883,21634
30883,22109
31783,22109
31783,21634
31692,21586
31583,21625
31483,21684
31397,21761
31333,21847
31269,21761
31183,21684
31083,21625
30974,21586
30883,21634
30783,21634
30692,21586
30583,21625
30483,21684
30397,21761
30378,21787
30378,21580
30844,21114
33552,21114
33054,21612
32959,21582
32844,21569
32836,21569
32830,21569
32716,21580
32605,21614
32504,21668
32414,21741
32341,21829
32332,21846
32269,21761
32183,21684
32083,21625
31974,21586
31883,21634
31883,22109
31891,22109
31891,22209
31883,22209
31883,22685
31974,22732
32083,22693
32183,22634
32269,22557
32332,22473
32336,22482
32409,22572
32497,22646
32598,22701
32707,22736
32822,22749
32830,22749
32836,22749
32950,22738
33061,22705
33061,22704
33278,22704
33328,22700
33378,22695
33381,22694
33384,22694
33432,22680
33481,22665
33483,22664
33486,22663
33530,22640
33575,22616
33577,22615
33580,22613
33619,22582
33658,22550
33662,22546
33662,22546
33662,22546
33664,22545
34296,21912
34286,21931
34252,22041
34240,22155
34251,22270
34283,22380
34336,22482
34409,22572
34497,22646
34598,22701
34707,22736
34822,22749
34830,22749
34836,22749
34950,22738
35061,22705
35162,22651
35252,22578
35325,22489
35333,22475
35336,22482
35409,22572
35497,22646
35598,22701
35707,22736
35822,22749
35830,22749
35836,22749
35950,22738
36061,22705
36162,22651
36252,22578
36325,22489
36333,22475
36336,22482
36409,22572
36497,22646
36598,22701
36707,22736
36822,22749
36830,22749
36836,22749
36950,22738
37061,22705
37162,22651
37252,22578
37325,22489
37333,22475
37336,22482
37409,22572
37497,22646
37598,22701
37707,22736
37822,22749
37830,22749
37836,22749
37950,22738
38061,22705
38162,22651
38252,22578
38325,22489
38333,22475
38336,22482
38409,22572
38497,22646
38598,22701
38707,22736
38822,22749
38830,22749
38836,22749
38950,22738
39061,22705
39162,22651
39252,22578
39325,22489
39333,22475
39336,22482
39409,22572
39497,22646
39598,22701
39707,22736
39822,22749
39830,22749
39836,22749
39950,22738
40061,22705
40162,22651
40252,22578
40325,22489
40380,22388
40414,22278
40426,22163
40415,22049
40383,21938
40330,21836
40257,21746
40169,21672
40068,21617
39959,21582
39844,21569
39836,21569
39830,21569
39716,21580
39605,21614
39504,21668
39414,21741
39341,21829
39333,21843
39330,21836
39257,21746
39169,21672
39068,21617
38959,21582
38844,21569
38836,21569
38830,21569
38716,21580
38605,21614
38504,21668
38414,21741
38341,21829
38333,21843
38330,21836
38257,21746
38169,21672
38068,21617
37959,21582
37844,21569
37836,21569
37830,21569
37716,21580
37605,21614
37504,21668
37414,21741
37341,21829
37333,21843
37330,21836
37257,21746
37169,21672
37068,21617
36959,21582
36844,21569
36836,21569
36830,21569
36716,21580
36605,21614
36504,21668
36414,21741
36341,21829
36333,21843
36330,21836
36257,21746
36169,21672
36068,21617
35959,21582
35844,21569
35836,21569
35830,21569
35716,21580
35605,21614
35504,21668
35414,21741
35341,21829
35333,21843
35330,21836
35257,21746
35169,21672
35068,21617
34959,21582
34844,21569
34836,21569
34830,21569
34716,21580
34605,21614
34582,21626
35975,20233
39952,20233
39983,20403
40047,20563
40140,20708
40260,20833
40402,20931
40560,21000
40728,21037
40901,21041
41071,21011
41232,20948
41377,20856
41502,20737
41602,20596
41672,20438
41710,20270
41713,20073
41679,19904
41614,19744
41518,19600
41397,19478
41254,19381
41094,19315
40925,19280
40753,19279
40583,19311
40423,19376
40279,19470
40156,19591
40058,19733
39990,19892
39954,20061
39952,20233
35975,20233
38397,17811
38468,17767
38548,17690
38612,17600
38657,17498
38681,17390
38683,17264
38661,17155
38619,17053
38558,16960
38486,16888
38486,13249
38548,13190
38612,13100
38657,12998
38681,12890
38683,12764
38661,12655
38619,12553
38558,12460
38486,12388
38486,9249
38503,9233
39952,9233
39983,9403
40047,9563
40140,9708
40260,9833
40402,9931
40560,10000
40728,10037
40901,10041
41071,10011
41232,9948
41377,9856
41502,9737
41602,9596
41672,9438
41710,9270
41713,9073
41679,8904
41614,8744
41518,8600
41397,8478
41254,8381
41094,8315
40925,8280
40753,8279
40583,8311
40423,8376
40279,8470
40156,8591
40058,8733
39990,8892
39954,9061
39952,9233
38503,9233
38548,9190
38612,9100
38614,9094
43004,4705
43036,4666
43068,4627
43069,4625
43071,4623
43095,4578
43119,4534
43120,4531
43121,4529
43136,4481
43151,4433
43152,4430
43153,4427
43158,4377
43163,4327
43163,4321
43163,4321
43163,4321
43163,4319
43163,2569
43158,2519
43154,2469
43153,2466
43153,2463
43138,2415
43124,2367
43123,2364
43122,2361
43098,2317
43075,2272
43074,2270
43072,2267
43040,2228
43009,2189
43005,2185
43005,2185
43005,2185
43004,2184
41504,684
41465,652
41426,619
41424,618
41421,616
41377,592
41333,568
41330,567
41328,566
41279,551
41231,536
41229,536
41226,535
41176,530
41126,524
41120,524
41120,524
41120,524
41118,524
11368,524
11318,529
11268,533
11265,534
11262,534
11214,549
11166,563
11163,564
11160,565
11116,589
11071,612
11069,614
11066,615
11027,647
10988,678
10984,682
10984,682
10984,682
10982,684
8582,3084
8550,3123
8518,3161
8517,3164
8515,3166
8491,3210
8467,3254
8466,3257
8465,3260
8450,3308
8435,3356
8434,3359
8433,3361
8428,3412
8423,3462
8423,3467
8423,3467
8423,3467
8423,3469
8423,4993
6636,6780
6634,6773
6595,6714
6541,6668
6477,6639
6407,6629
5029,6629
4989,6632
4922,6653
4863,6692
4817,6746
4788,6810
4778,6880
4778,8258
4781,8298
4802,8365
4841,8425
4895,8470
4915,8479
4164,8479
4204,8452
4239,8418
4266,8377
4285,8331
4295,8283
4295,7682
4232,7619
3406,7619
3306,7619
2479,7619
2417,7682
1988,7682
1988,6856
2417,6856
2417,7457
2479,7519
3306,7519
3306,6693
3406,6693
3406,7519
4232,7519
4295,7457
4295,6856
4285,6807
4266,6762
4239,6721
4204,6686
4163,6659
4118,6640
4069,6630
3468,6630
3406,6693
3306,6693
3243,6630
2642,6630
2594,6640
2548,6659
2507,6686
2473,6721
2445,6762
2426,6807
2417,6856
1988,6856
1988,3497
3045,3497
3045,5001
6891,5001
6891,3497
3045,3497
1988,3497
1988,289
44098,289
44098,25450
" /> 
</g>
<g style="fill:#FFFFFF; fill-opacity:1.0; 
stroke:#FFFFFF; stroke-width:100; stroke-opacity:1; 
stroke-linecap:round; stroke-linejoin:round;">
</g>
<g style="fill:#FFFFFF; fill-opacity:1.0; 
stroke:#FFFFFF; stroke-width:0; stroke-opacity:1; 
stroke-linecap:round; stroke-linejoin:round;">
<circle cx="19968.5" cy="8819.69" r="344.488" /> 
</g>
<g style="fill:#FFFFFF; fill-opacity:1.0; 
stroke:#FFFFFF; stroke-width:39.3701; stroke-opacity:1; 
stroke-linecap:round; stroke-linejoin:round;">
</g>
<g style="fill:#FFFFFF; fill-opacity:1.0; 
stroke:#FFFFFF; stroke-width:0; stroke-opacity:1; 
stroke-linecap:round; stroke-linejoin:round;">
<circle cx="16768.5" cy="8819.69" r="344.488" /> 
</g>
<g style="fill:#FFFFFF; fill-opacity:1.0; 
stroke:#FFFFFF; stroke-width:39.3701; stroke-opacity:1; 
stroke-linecap:round; stroke-linejoin:round;">
</g>
<g style="fill:#FFFFFF; fill-opacity:1.0; 
stroke:#FFFFFF; stroke-width:393.701; stroke-opacity:1; 
stroke-linecap:round; stroke-linejoin:round;">
</g>
<g style="fill:#FFFFFF; fill-opacity:0.0; 
stroke:#FFFFFF; stroke-width:393.701; stroke-opacity:1; 
stroke-linecap:round; stroke-linejoin:round;">
<path d="M5718 7175
L5718 7963
" />
<path d="M3356 7175
L3356 7963
" />
<path d="M4143 9420
L4931 9420
" />
</g>
<g style="fill:#FFFFFF; fill-opacity:1.0; 
stroke:#FFFFFF; stroke-width:0; stroke-opacity:1; 
stroke-linecap:round; stroke-linejoin:round;">
<circle cx="5518.5" cy="17868.9" r="196.85" /> 
</g>
<g style="fill:#FFFFFF; fill-opacity:1.0; 
stroke:#FFFFFF; stroke-width:39.3701; stroke-opacity:1; 
stroke-linecap:round; stroke-linejoin:round;">
</g>
<g style="fill:#FFFFFF; fill-opacity:1.0; 
stroke:#FFFFFF; stroke-width:0; stroke-opacity:1; 
stroke-linecap:round; stroke-linejoin:round;">
<circle cx="5518.5" cy="16868.9" r="196.85" /> 
</g>
<g style="fill:#FFFFFF; fill-opacity:1.0; 
stroke:#FFFFFF; stroke-width:39.3701; stroke-opacity:1; 
stroke-linecap:round; stroke-linejoin:round;">
</g>
<g style="fill:#FFFFFF; fill-opacity:1.0; 
stroke:#FFFFFF; stroke-width:0; stroke-opacity:1; 
stroke-linecap:round; stroke-linejoin:round;">
<circle cx="5518.5" cy="16069.7" r="196.85" /> 
</g>
<g style="fill:#FFFFFF; fill-opacity:1.0; 
stroke:#FFFFFF; stroke-width:39.3701; stroke-opacity:1; 
stroke-linecap:round; stroke-linejoin:round;">
</g>
<g style="fill:#FFFFFF; fill-opacity:1.0; 
stroke:#FFFFFF; stroke-width:0; stroke-opacity:1; 
stroke-linecap:round; stroke-linejoin:round;">
<circle cx="5518.5" cy="15069.7" r="196.85" /> 
</g>
<g style="fill:#FFFFFF; fill-opacity:1.0; 
stroke:#FFFFFF; stroke-width:39.3701; stroke-opacity:1; 
stroke-linecap:round; stroke-linejoin:round;">
</g>
<g style="fill:#FFFFFF; fill-opacity:1.0; 
stroke:#FFFFFF; stroke-width:0; stroke-opacity:1; 
stroke-linecap:round; stroke-linejoin:round;">
<circle cx="4467.32" cy="19069.7" r="452.756" /> 
</g>
<g style="fill:#FFFFFF; fill-opacity:1.0; 
stroke:#FFFFFF; stroke-width:39.3701; stroke-opacity:1; 
stroke-linecap:round; stroke-linejoin:round;">
</g>
<g style="fill:#FFFFFF; fill-opacity:1.0; 
stroke:#FFFFFF; stroke-width:0; stroke-opacity:1; 
stroke-linecap:round; stroke-linejoin:round;">
<circle cx="4467.32" cy="13668.1" r="452.756" /> 
</g>
<g style="fill:#FFFFFF; fill-opacity:1.0; 
stroke:#FFFFFF; stroke-width:39.3701; stroke-opacity:1; 
stroke-linecap:round; stroke-linejoin:round;">
</g>
<g style="fill:#FFFFFF; fill-opacity:1.0; 
stroke:#FFFFFF; stroke-width:0; stroke-opacity:1; 
stroke-linecap:round; stroke-linejoin:round;">
<circle cx="10818.5" cy="4219.69" r="196.85" /> 
</g>
<g style="fill:#FFFFFF; fill-opacity:1.0; 
stroke:#FFFFFF; stroke-width:39.3701; stroke-opacity:1; 
stroke-linecap:round; stroke-linejoin:round;">
</g>
<g style="fill:#FFFFFF; fill-opacity:1.0; 
stroke:#FFFFFF; stroke-width:0; stroke-opacity:1; 
stroke-linecap:round; stroke-linejoin:round;">
<circle cx="10818.5" cy="5219.69" r="196.85" /> 
</g>
<g style="fill:#FFFFFF; fill-opacity:1.0; 
stroke:#FFFFFF; stroke-width:39.3701; stroke-opacity:1; 
stroke-linecap:round; stroke-linejoin:round;">
</g>
<g style="fill:#FFFFFF; fill-opacity:1.0; 
stroke:#FFFFFF; stroke-width:0; stroke-opacity:1; 
stroke-linecap:round; stroke-linejoin:round;">
<circle cx="10818.5" cy="6219.69" r="196.85" /> 
</g>
<g style="fill:#FFFFFF; fill-opacity:1.0; 
stroke:#FFFFFF; stroke-width:39.3701; stroke-opacity:1; 
stroke-linecap:round; stroke-linejoin:round;">
</g>
<g style="fill:#FFFFFF; fill-opacity:1.0; 
stroke:#FFFFFF; stroke-width:0; stroke-opacity:1; 
stroke-linecap:round; stroke-linejoin:round;">
<circle cx="10818.5" cy="11619.7" r="196.85" /> 
</g>
<g style="fill:#FFFFFF; fill-opacity:1.0; 
stroke:#FFFFFF; stroke-width:39.3701; stroke-opacity:1; 
stroke-linecap:round; stroke-linejoin:round;">
</g>
<g style="fill:#FFFFFF; fill-opacity:1.0; 
stroke:#FFFFFF; stroke-width:0; stroke-opacity:1; 
stroke-linecap:round; stroke-linejoin:round;">
<circle cx="10818.5" cy="12619.7" r="196.85" /> 
</g>
<g style="fill:#FFFFFF; fill-opacity:1.0; 
stroke:#FFFFFF; stroke-width:39.3701; stroke-opacity:1; 
stroke-linecap:round; stroke-linejoin:round;">
</g>
<g style="fill:#FFFFFF; fill-opacity:1.0; 
stroke:#FFFFFF; stroke-width:0; stroke-opacity:1; 
stroke-linecap:round; stroke-linejoin:round;">
<circle cx="10818.5" cy="13619.7" r="196.85" /> 
</g>
<g style="fill:#FFFFFF; fill-opacity:1.0; 
stroke:#FFFFFF; stroke-width:39.3701; stroke-opacity:1; 
stroke-linecap:round; stroke-linejoin:round;">
</g>
<g style="fill:#FFFFFF; fill-opacity:1.0; 
stroke:#FFFFFF; stroke-width:0; stroke-opacity:1; 
stroke-linecap:round; stroke-linejoin:round;">
<circle cx="10818.5" cy="14619.7" r="196.85" /> 
</g>
<g style="fill:#FFFFFF; fill-opacity:1.0; 
stroke:#FFFFFF; stroke-width:39.3701; stroke-opacity:1; 
stroke-linecap:round; stroke-linejoin:round;">
</g>
<g style="fill:#FFFFFF; fill-opacity:1.0; 
stroke:#FFFFFF; stroke-width:0; stroke-opacity:1; 
stroke-linecap:round; stroke-linejoin:round;">
<circle cx="30618.5" cy="8819.69" r="118.11" /> 
</g>
<g style="fill:#FFFFFF; fill-opacity:1.0; 
stroke:#FFFFFF; stroke-width:39.3701; stroke-opacity:1; 
stroke-linecap:round; stroke-linejoin:round;">
</g>
<g style="fill:#FFFFFF; fill-opacity:1.0; 
stroke:#FFFFFF; stroke-width:0; stroke-opacity:1; 
stroke-linecap:round; stroke-linejoin:round;">
<circle cx="30118.5" cy="8819.69" r="118.11" /> 
</g>
<g style="fill:#FFFFFF; fill-opacity:1.0; 
stroke:#FFFFFF; stroke-width:39.3701; stroke-opacity:1; 
stroke-linecap:round; stroke-linejoin:round;">
</g>
<g style="fill:#FFFFFF; fill-opacity:1.0; 
stroke:#FFFFFF; stroke-width:0; stroke-opacity:1; 
stroke-linecap:round; stroke-linejoin:round;">
<circle cx="31118.5" cy="8819.69" r="118.11" /> 
</g>
<g style="fill:#FFFFFF; fill-opacity:1.0; 
stroke:#FFFFFF; stroke-width:39.3701; stroke-opacity:1; 
stroke-linecap:round; stroke-linejoin:round;">
</g>
<g style="fill:#FFFFFF; fill-opacity:1.0; 
stroke:#FFFFFF; stroke-width:0; stroke-opacity:1; 
stroke-linecap:round; stroke-linejoin:round;">
<circle cx="30618.5" cy="12819.7" r="118.11" /> 
</g>
<g style="fill:#FFFFFF; fill-opacity:1.0; 
stroke:#FFFFFF; stroke-width:39.3701; stroke-opacity:1; 
stroke-linecap:round; stroke-linejoin:round;">
</g>
<g style="fill:#FFFFFF; fill-opacity:1.0; 
stroke:#FFFFFF; stroke-width:0; stroke-opacity:1; 
stroke-linecap:round; stroke-linejoin:round;">
<circle cx="30118.5" cy="12819.7" r="118.11" /> 
</g>
<g style="fill:#FFFFFF; fill-opacity:1.0; 
stroke:#FFFFFF; stroke-width:39.3701; stroke-opacity:1; 
stroke-linecap:round; stroke-linejoin:round;">
</g>
<g style="fill:#FFFFFF; fill-opacity:1.0; 
stroke:#FFFFFF; stroke-width:0; stroke-opacity:1; 
stroke-linecap:round; stroke-linejoin:round;">
<circle cx="31118.5" cy="12819.7" r="118.11" /> 
</g>
<g style="fill:#FFFFFF; fill-opacity:1.0; 
stroke:#FFFFFF; stroke-width:39.3701; stroke-opacity:1; 
stroke-linecap:round; stroke-linejoin:round;">
</g>
<g style="fill:#FFFFFF; fill-opacity:1.0; 
stroke:#FFFFFF; stroke-width:0; stroke-opacity:1; 
stroke-linecap:round; stroke-linejoin:round;">
<circle cx="30618.5" cy="17319.7" r="118.11" /> 
</g>
<g style="fill:#FFFFFF; fill-opacity:1.0; 
stroke:#FFFFFF; stroke-width:39.3701; stroke-opacity:1; 
stroke-linecap:round; stroke-linejoin:round;">
</g>
<g style="fill:#FFFFFF; fill-opacity:1.0; 
stroke:#FFFFFF; stroke-width:0; stroke-opacity:1; 
stroke-linecap:round; stroke-linejoin:round;">
<circle cx="30118.5" cy="17319.7" r="118.11" /> 
</g>
<g style="fill:#FFFFFF; fill-opacity:1.0; 
stroke:#FFFFFF; stroke-width:39.3701; stroke-opacity:1; 
stroke-linecap:round; stroke-linejoin:round;">
</g>
<g style="fill:#FFFFFF; fill-opacity:1.0; 
stroke:#FFFFFF; stroke-width:0; stroke-opacity:1; 
stroke-linecap:round; stroke-linejoin:round;">
<circle cx="31118.5" cy="17319.7" r="118.11" /> 
</g>
<g style="fill:#FFFFFF; fill-opacity:1.0; 
stroke:#FFFFFF; stroke-width:39.3701; stroke-opacity:1; 
stroke-linecap:round; stroke-linejoin:round;">
</g>
<g style="fill:#FFFFFF; fill-opacity:1.0; 
stroke:#FFFFFF; stroke-width:0; stroke-opacity:1; 
stroke-linecap:round; stroke-linejoin:round;">
<circle cx="38118.5" cy="8819.69" r="157.48" /> 
</g>
<g style="fill:#FFFFFF; fill-opacity:1.0; 
stroke:#FFFFFF; stroke-width:39.3701; stroke-opacity:1; 
stroke-linecap:round; stroke-linejoin:round;">
</g>
<g style="fill:#FFFFFF; fill-opacity:1.0; 
stroke:#FFFFFF; stroke-width:0; stroke-opacity:1; 
stroke-linecap:round; stroke-linejoin:round;">
<circle cx="35118.5" cy="8819.69" r="157.48" /> 
</g>
<g style="fill:#FFFFFF; fill-opacity:1.0; 
stroke:#FFFFFF; stroke-width:39.3701; stroke-opacity:1; 
stroke-linecap:round; stroke-linejoin:round;">
</g>
<g style="fill:#FFFFFF; fill-opacity:1.0; 
stroke:#FFFFFF; stroke-width:0; stroke-opacity:1; 
stroke-linecap:round; stroke-linejoin:round;">
<circle cx="22368.5" cy="8819.69" r="157.48" /> 
</g>
<g style="fill:#FFFFFF; fill-opacity:1.0; 
stroke:#FFFFFF; stroke-width:39.3701; stroke-opacity:1; 
stroke-linecap:round; stroke-linejoin:round;">
</g>
<g style="fill:#FFFFFF; fill-opacity:1.0; 
stroke:#FFFFFF; stroke-width:0; stroke-opacity:1; 
stroke-linecap:round; stroke-linejoin:round;">
<circle cx="25368.5" cy="8819.69" r="157.48" /> 
</g>
<g style="fill:#FFFFFF; fill-opacity:1.0; 
stroke:#FFFFFF; stroke-width:39.3701; stroke-opacity:1; 
stroke-linecap:round; stroke-linejoin:round;">
</g>
<g style="fill:#FFFFFF; fill-opacity:1.0; 
stroke:#FFFFFF; stroke-width:0; stroke-opacity:1; 
stroke-linecap:round; stroke-linejoin:round;">
<circle cx="38118.5" cy="12819.7" r="157.48" /> 
</g>
<g style="fill:#FFFFFF; fill-opacity:1.0; 
stroke:#FFFFFF; stroke-width:39.3701; stroke-opacity:1; 
stroke-linecap:round; stroke-linejoin:round;">
</g>
<g style="fill:#FFFFFF; fill-opacity:1.0; 
stroke:#FFFFFF; stroke-width:0; stroke-opacity:1; 
stroke-linecap:round; stroke-linejoin:round;">
<circle cx="35118.5" cy="12819.7" r="157.48" /> 
</g>
<g style="fill:#FFFFFF; fill-opacity:1.0; 
stroke:#FFFFFF; stroke-width:39.3701; stroke-opacity:1; 
stroke-linecap:round; stroke-linejoin:round;">
</g>
<g style="fill:#FFFFFF; fill-opacity:1.0; 
stroke:#FFFFFF; stroke-width:0; stroke-opacity:1; 
stroke-linecap:round; stroke-linejoin:round;">
<circle cx="22368.5" cy="12819.7" r="157.48" /> 
</g>
<g style="fill:#FFFFFF; fill-opacity:1.0; 
stroke:#FFFFFF; stroke-width:39.3701; stroke-opacity:1; 
stroke-linecap:round; stroke-linejoin:round;">
</g>
<g style="fill:#FFFFFF; fill-opacity:1.0; 
stroke:#FFFFFF; stroke-width:0; stroke-opacity:1; 
stroke-linecap:round; stroke-linejoin:round;">
<circle cx="25368.5" cy="12819.7" r="157.48" /> 
</g>
<g style="fill:#FFFFFF; fill-opacity:1.0; 
stroke:#FFFFFF; stroke-width:39.3701; stroke-opacity:1; 
stroke-linecap:round; stroke-linejoin:round;">
</g>
<g style="fill:#FFFFFF; fill-opacity:1.0; 
stroke:#FFFFFF; stroke-width:0; stroke-opacity:1; 
stroke-linecap:round; stroke-linejoin:round;">
<circle cx="38118.5" cy="17319.7" r="157.48" /> 
</g>
<g style="fill:#FFFFFF; fill-opacity:1.0; 
stroke:#FFFFFF; stroke-width:39.3701; stroke-opacity:1; 
stroke-linecap:round; stroke-linejoin:round;">
</g>
<g style="fill:#FFFFFF; fill-opacity:1.0; 
stroke:#FFFFFF; stroke-width:0; stroke-opacity:1; 
stroke-linecap:round; stroke-linejoin:round;">
<circle cx="35118.5" cy="17319.7" r="157.48" /> 
</g>
<g style="fill:#FFFFFF; fill-opacity:1.0; 
stroke:#FFFFFF; stroke-width:39.3701; stroke-opacity:1; 
stroke-linecap:round; stroke-linejoin:round;">
</g>
<g style="fill:#FFFFFF; fill-opacity:1.0; 
stroke:#FFFFFF; stroke-width:0; stroke-opacity:1; 
stroke-linecap:round; stroke-linejoin:round;">
<circle cx="22368.5" cy="17319.7" r="157.48" /> 
</g>
<g style="fill:#FFFFFF; fill-opacity:1.0; 
stroke:#FFFFFF; stroke-width:39.3701; stroke-opacity:1; 
stroke-linecap:round; stroke-linejoin:round;">
</g>
<g style="fill:#FFFFFF; fill-opacity:1.0; 
stroke:#FFFFFF; stroke-width:0; stroke-opacity:1; 
stroke-linecap:round; stroke-linejoin:round;">
<circle cx="25368.5" cy="17319.7" r="157.48" /> 
</g>
<g style="fill:#FFFFFF; fill-opacity:1.0; 
stroke:#FFFFFF; stroke-width:39.3701; stroke-opacity:1; 
stroke-linecap:round; stroke-linejoin:round;">
</g>
<g style="fill:#FFFFFF; fill-opacity:1.0; 
stroke:#FFFFFF; stroke-width:0; stroke-opacity:1; 
stroke-linecap:round; stroke-linejoin:round;">
<circle cx="10818.5" cy="19485.4" r="196.85" /> 
</g>
<g style="fill:#FFFFFF; fill-opacity:1.0; 
stroke:#FFFFFF; stroke-width:39.3701; stroke-opacity:1; 
stroke-linecap:round; stroke-linejoin:round;">
</g>
<g style="fill:#FFFFFF; fill-opacity:1.0; 
stroke:#FFFFFF; stroke-width:0; stroke-opacity:1; 
stroke-linecap:round; stroke-linejoin:round;">
<circle cx="10818.5" cy="21453.9" r="196.85" /> 
</g>
<g style="fill:#FFFFFF; fill-opacity:1.0; 
stroke:#FFFFFF; stroke-width:39.3701; stroke-opacity:1; 
stroke-linecap:round; stroke-linejoin:round;">
</g>
<g style="fill:#FFFFFF; fill-opacity:1.0; 
stroke:#FFFFFF; stroke-width:0; stroke-opacity:1; 
stroke-linecap:round; stroke-linejoin:round;">
<circle cx="34833.5" cy="22159.7" r="200" /> 
</g>
<g style="fill:#FFFFFF; fill-opacity:1.0; 
stroke:#FFFFFF; stroke-width:39.3701; stroke-opacity:1; 
stroke-linecap:round; stroke-linejoin:round;">
</g>
<g style="fill:#FFFFFF; fill-opacity:1.0; 
stroke:#FFFFFF; stroke-width:0; stroke-opacity:1; 
stroke-linecap:round; stroke-linejoin:round;">
<circle cx="32833.5" cy="22159.7" r="200" /> 
</g>
<g style="fill:#FFFFFF; fill-opacity:1.0; 
stroke:#FFFFFF; stroke-width:39.3701; stroke-opacity:1; 
stroke-linecap:round; stroke-linejoin:round;">
</g>
<g style="fill:#FFFFFF; fill-opacity:1.0; 
stroke:#FFFFFF; stroke-width:0; stroke-opacity:1; 
stroke-linecap:round; stroke-linejoin:round;">
<circle cx="31833.5" cy="22159.7" r="200" /> 
</g>
<g style="fill:#FFFFFF; fill-opacity:1.0; 
stroke:#FFFFFF; stroke-width:39.3701; stroke-opacity:1; 
stroke-linecap:round; stroke-linejoin:round;">
</g>
<g style="fill:#FFFFFF; fill-opacity:1.0; 
stroke:#FFFFFF; stroke-width:0; stroke-opacity:1; 
stroke-linecap:round; stroke-linejoin:round;">
<circle cx="30833.5" cy="22159.7" r="200" /> 
</g>
<g style="fill:#FFFFFF; fill-opacity:1.0; 
stroke:#FFFFFF; stroke-width:39.3701; stroke-opacity:1; 
stroke-linecap:round; stroke-linejoin:round;">
</g>
<g style="fill:#FFFFFF; fill-opacity:1.0; 
stroke:#FFFFFF; stroke-width:0; stroke-opacity:1; 
stroke-linecap:round; stroke-linejoin:round;">
<circle cx="29833.5" cy="22159.7" r="200" /> 
</g>
<g style="fill:#FFFFFF; fill-opacity:1.0; 
stroke:#FFFFFF; stroke-width:39.3701; stroke-opacity:1; 
stroke-linecap:round; stroke-linejoin:round;">
</g>
<g style="fill:#FFFFFF; fill-opacity:1.0; 
stroke:#FFFFFF; stroke-width:0; stroke-opacity:1; 
stroke-linecap:round; stroke-linejoin:round;">
<circle cx="28833.5" cy="22159.7" r="200" /> 
</g>
<g style="fill:#FFFFFF; fill-opacity:1.0; 
stroke:#FFFFFF; stroke-width:39.3701; stroke-opacity:1; 
stroke-linecap:round; stroke-linejoin:round;">
</g>
<g style="fill:#FFFFFF; fill-opacity:1.0; 
stroke:#FFFFFF; stroke-width:0; stroke-opacity:1; 
stroke-linecap:round; stroke-linejoin:round;">
<circle cx="27833.5" cy="22159.7" r="200" /> 
</g>
<g style="fill:#FFFFFF; fill-opacity:1.0; 
stroke:#FFFFFF; stroke-width:39.3701; stroke-opacity:1; 
stroke-linecap:round; stroke-linejoin:round;">
</g>
<g style="fill:#FFFFFF; fill-opacity:1.0; 
stroke:#FFFFFF; stroke-width:0; stroke-opacity:1; 
stroke-linecap:round; stroke-linejoin:round;">
<circle cx="39833.5" cy="3159.69" r="200" /> 
</g>
<g style="fill:#FFFFFF; fill-opacity:1.0; 
stroke:#FFFFFF; stroke-width:39.3701; stroke-opacity:1; 
stroke-linecap:round; stroke-linejoin:round;">
</g>
<g style="fill:#FFFFFF; fill-opacity:1.0; 
stroke:#FFFFFF; stroke-width:0; stroke-opacity:1; 
stroke-linecap:round; stroke-linejoin:round;">
<circle cx="38833.5" cy="3159.69" r="200" /> 
</g>
<g style="fill:#FFFFFF; fill-opacity:1.0; 
stroke:#FFFFFF; stroke-width:39.3701; stroke-opacity:1; 
stroke-linecap:round; stroke-linejoin:round;">
</g>
<g style="fill:#FFFFFF; fill-opacity:1.0; 
stroke:#FFFFFF; stroke-width:0; stroke-opacity:1; 
stroke-linecap:round; stroke-linejoin:round;">
<circle cx="37833.5" cy="3159.69" r="200" /> 
</g>
<g style="fill:#FFFFFF; fill-opacity:1.0; 
stroke:#FFFFFF; stroke-width:39.3701; stroke-opacity:1; 
stroke-linecap:round; stroke-linejoin:round;">
</g>
<g style="fill:#FFFFFF; fill-opacity:1.0; 
stroke:#FFFFFF; stroke-width:0; stroke-opacity:1; 
stroke-linecap:round; stroke-linejoin:round;">
<circle cx="36833.5" cy="3159.69" r="200" /> 
</g>
<g style="fill:#FFFFFF; fill-opacity:1.0; 
stroke:#FFFFFF; stroke-width:39.3701; stroke-opacity:1; 
stroke-linecap:round; stroke-linejoin:round;">
</g>
<g style="fill:#FFFFFF; fill-opacity:1.0; 
stroke:#FFFFFF; stroke-width:0; stroke-opacity:1; 
stroke-linecap:round; stroke-linejoin:round;">
<circle cx="35833.5" cy="3159.69" r="200" /> 
</g>
<g style="fill:#FFFFFF; fill-opacity:1.0; 
stroke:#FFFFFF; stroke-width:39.3701; stroke-opacity:1; 
stroke-linecap:round; stroke-linejoin:round;">
</g>
<g style="fill:#FFFFFF; fill-opacity:1.0; 
stroke:#FFFFFF; stroke-width:0; stroke-opacity:1; 
stroke-linecap:round; stroke-linejoin:round;">
<circle cx="34833.5" cy="3159.69" r="200" /> 
</g>
<g style="fill:#FFFFFF; fill-opacity:1.0; 
stroke:#FFFFFF; stroke-width:39.3701; stroke-opacity:1; 
stroke-linecap:round; stroke-linejoin:round;">
</g>
<g style="fill:#FFFFFF; fill-opacity:1.0; 
stroke:#FFFFFF; stroke-width:0; stroke-opacity:1; 
stroke-linecap:round; stroke-linejoin:round;">
<circle cx="33833.5" cy="3159.69" r="200" /> 
</g>
<g style="fill:#FFFFFF; fill-opacity:1.0; 
stroke:#FFFFFF; stroke-width:39.3701; stroke-opacity:1; 
stroke-linecap:round; stroke-linejoin:round;">
</g>
<g style="fill:#FFFFFF; fill-opacity:1.0; 
stroke:#FFFFFF; stroke-width:0; stroke-opacity:1; 
stroke-linecap:round; stroke-linejoin:round;">
<circle cx="32833.5" cy="3159.69" r="200" /> 
</g>
<g style="fill:#FFFFFF; fill-opacity:1.0; 
stroke:#FFFFFF; stroke-width:39.3701; stroke-opacity:1; 
stroke-linecap:round; stroke-linejoin:round;">
</g>
<g style="fill:#FFFFFF; fill-opacity:1.0; 
stroke:#FFFFFF; stroke-width:0; stroke-opacity:1; 
stroke-linecap:round; stroke-linejoin:round;">
<circle cx="25233.5" cy="3159.69" r="200" /> 
</g>
<g style="fill:#FFFFFF; fill-opacity:1.0; 
stroke:#FFFFFF; stroke-width:39.3701; stroke-opacity:1; 
stroke-linecap:round; stroke-linejoin:round;">
</g>
<g style="fill:#FFFFFF; fill-opacity:1.0; 
stroke:#FFFFFF; stroke-width:0; stroke-opacity:1; 
stroke-linecap:round; stroke-linejoin:round;">
<circle cx="31233.5" cy="3159.69" r="200" /> 
</g>
<g style="fill:#FFFFFF; fill-opacity:1.0; 
stroke:#FFFFFF; stroke-width:39.3701; stroke-opacity:1; 
stroke-linecap:round; stroke-linejoin:round;">
</g>
<g style="fill:#FFFFFF; fill-opacity:1.0; 
stroke:#FFFFFF; stroke-width:0; stroke-opacity:1; 
stroke-linecap:round; stroke-linejoin:round;">
<circle cx="30233.5" cy="3159.69" r="200" /> 
</g>
<g style="fill:#FFFFFF; fill-opacity:1.0; 
stroke:#FFFFFF; stroke-width:39.3701; stroke-opacity:1; 
stroke-linecap:round; stroke-linejoin:round;">
</g>
<g style="fill:#FFFFFF; fill-opacity:1.0; 
stroke:#FFFFFF; stroke-width:0; stroke-opacity:1; 
stroke-linecap:round; stroke-linejoin:round;">
<circle cx="29233.5" cy="3159.69" r="200" /> 
</g>
<g style="fill:#FFFFFF; fill-opacity:1.0; 
stroke:#FFFFFF; stroke-width:39.3701; stroke-opacity:1; 
stroke-linecap:round; stroke-linejoin:round;">
</g>
<g style="fill:#FFFFFF; fill-opacity:1.0; 
stroke:#FFFFFF; stroke-width:0; stroke-opacity:1; 
stroke-linecap:round; stroke-linejoin:round;">
<circle cx="40833.5" cy="20159.7" r="629.921" /> 
</g>
<g style="fill:#FFFFFF; fill-opacity:1.0; 
stroke:#FFFFFF; stroke-width:39.3701; stroke-opacity:1; 
stroke-linecap:round; stroke-linejoin:round;">
</g>
<g style="fill:#FFFFFF; fill-opacity:1.0; 
stroke:#FFFFFF; stroke-width:0; stroke-opacity:1; 
stroke-linecap:round; stroke-linejoin:round;">
<circle cx="40833.5" cy="9159.69" r="629.921" /> 
</g>
<g style="fill:#FFFFFF; fill-opacity:1.0; 
stroke:#FFFFFF; stroke-width:39.3701; stroke-opacity:1; 
stroke-linecap:round; stroke-linejoin:round;">
</g>
<g style="fill:#FFFFFF; fill-opacity:1.0; 
stroke:#FFFFFF; stroke-width:0; stroke-opacity:1; 
stroke-linecap:round; stroke-linejoin:round;">
<circle cx="20833.5" cy="3159.69" r="629.921" /> 
</g>
<g style="fill:#FFFFFF; fill-opacity:1.0; 
stroke:#FFFFFF; stroke-width:39.3701; stroke-opacity:1; 
stroke-linecap:round; stroke-linejoin:round;">
</g>
<g style="fill:#FFFFFF; fill-opacity:1.0; 
stroke:#FFFFFF; stroke-width:0; stroke-opacity:1; 
stroke-linecap:round; stroke-linejoin:round;">
<circle cx="20333.5" cy="22159.7" r="629.921" /> 
</g>
<g style="fill:#FFFFFF; fill-opacity:1.0; 
stroke:#FFFFFF; stroke-width:39.3701; stroke-opacity:1; 
stroke-linecap:round; stroke-linejoin:round;">
</g>
<g style="fill:#FFFFFF; fill-opacity:1.0; 
stroke:#FFFFFF; stroke-width:0; stroke-opacity:1; 
stroke-linecap:round; stroke-linejoin:round;">
<circle cx="24233.5" cy="3159.69" r="200" /> 
</g>
<g style="fill:#FFFFFF; fill-opacity:1.0; 
stroke:#FFFFFF; stroke-width:39.3701; stroke-opacity:1; 
stroke-linecap:round; stroke-linejoin:round;">
</g>
<g style="fill:#FFFFFF; fill-opacity:1.0; 
stroke:#FFFFFF; stroke-width:0; stroke-opacity:1; 
stroke-linecap:round; stroke-linejoin:round;">
<circle cx="26233.5" cy="3159.69" r="200" /> 
</g>
<g style="fill:#FFFFFF; fill-opacity:1.0; 
stroke:#FFFFFF; stroke-width:39.3701; stroke-opacity:1; 
stroke-linecap:round; stroke-linejoin:round;">
</g>
<g style="fill:#FFFFFF; fill-opacity:1.0; 
stroke:#FFFFFF; stroke-width:0; stroke-opacity:1; 
stroke-linecap:round; stroke-linejoin:round;">
<circle cx="27233.5" cy="3159.69" r="200" /> 
</g>
<g style="fill:#FFFFFF; fill-opacity:1.0; 
stroke:#FFFFFF; stroke-width:39.3701; stroke-opacity:1; 
stroke-linecap:round; stroke-linejoin:round;">
</g>
<g style="fill:#FFFFFF; fill-opacity:1.0; 
stroke:#FFFFFF; stroke-width:0; stroke-opacity:1; 
stroke-linecap:round; stroke-linejoin:round;">
<circle cx="28233.5" cy="3159.69" r="200" /> 
</g>
<g style="fill:#FFFFFF; fill-opacity:1.0; 
stroke:#FFFFFF; stroke-width:39.3701; stroke-opacity:1; 
stroke-linecap:round; stroke-linejoin:round;">
</g>
<g style="fill:#FFFFFF; fill-opacity:1.0; 
stroke:#FFFFFF; stroke-width:0; stroke-opacity:1; 
stroke-linecap:round; stroke-linejoin:round;">
<circle cx="35833.5" cy="22159.7" r="200" /> 
</g>
<g style="fill:#FFFFFF; fill-opacity:1.0; 
stroke:#FFFFFF; stroke-width:39.3701; stroke-opacity:1; 
stroke-linecap:round; stroke-linejoin:round;">
</g>
<g style="fill:#FFFFFF; fill-opacity:1.0; 
stroke:#FFFFFF; stroke-width:0; stroke-opacity:1; 
stroke-linecap:round; stroke-linejoin:round;">
<circle cx="36833.5" cy="22159.7" r="200" /> 
</g>
<g style="fill:#FFFFFF; fill-opacity:1.0; 
stroke:#FFFFFF; stroke-width:39.3701; stroke-opacity:1; 
stroke-linecap:round; stroke-linejoin:round;">
</g>
<g style="fill:#FFFFFF; fill-opacity:1.0; 
stroke:#FFFFFF; stroke-width:0; stroke-opacity:1; 
stroke-linecap:round; stroke-linejoin:round;">
<circle cx="37833.5" cy="22159.7" r="200" /> 
</g>
<g style="fill:#FFFFFF; fill-opacity:1.0; 
stroke:#FFFFFF; stroke-width:39.3701; stroke-opacity:1; 
stroke-linecap:round; stroke-linejoin:round;">
</g>
<g style="fill:#FFFFFF; fill-opacity:1.0; 
stroke:#FFFFFF; stroke-width:0; stroke-opacity:1; 
stroke-linecap:round; stroke-linejoin:round;">
<circle cx="38833.5" cy="22159.7" r="200" /> 
</g>
<g style="fill:#FFFFFF; fill-opacity:1.0; 
stroke:#FFFFFF; stroke-width:39.3701; stroke-opacity:1; 
stroke-linecap:round; stroke-linejoin:round;">
</g>
<g style="fill:#FFFFFF; fill-opacity:1.0; 
stroke:#FFFFFF; stroke-width:0; stroke-opacity:1; 
stroke-linecap:round; stroke-linejoin:round;">
<circle cx="39833.5" cy="22159.7" r="200" /> 
</g>
<g style="fill:#FFFFFF; fill-opacity:1.0; 
stroke:#FFFFFF; stroke-width:39.3701; stroke-opacity:1; 
stroke-linecap:round; stroke-linejoin:round;">
</g>
<g style="fill:#000000; fill-opacity:1.0; 
stroke:#000000; stroke-width:39.3701; stroke-opacity:1; 
stroke-linecap:round; stroke-linejoin:round;">
</g>
<g style="fill:#000000; fill-opacity:0.0; 
stroke:#000000; stroke-width:39.3701; stroke-opacity:1; 
stroke-linecap:round; stroke-linejoin:round;">
<path d="M1718 19
L1718 69
" />
<path d="M44368 19
L1718 19
" />
<path d="M44368 25719
L44368 19
" />
<path d="M1718 25719
L44368 25719
" />
<path d="M1718 69
L1718 25719
" />
</g> 
</svg>
