<?xml version="1.0" standalone="no"?>
 <!DOCTYPE svg PUBLIC "-//W3C//DTD SVG 1.1//EN" 
 "http://www.w3.org/Graphics/SVG/1.1/DTD/svg11.dtd"> 
<svg xmlns="http://www.w3.org/2000/svg" version="1.1" 
    width="11.237cm" height="11.0287cm" viewBox="0 0 44240 43420 ">
<title>SVG Picture created as shielded-brd.svg date 2018/02/13 05:50:53 </title>
  <desc>Picture generated by PCBNEW </desc>
<g style="fill:#000000; fill-opacity:1;stroke:#000000; stroke-opacity:1;
stroke-linecap:round; stroke-linejoin:round; "
 transform="translate(0 0) scale(1 1)">
</g>
<g style="fill:#000000; fill-opacity:0.0; 
stroke:#000000; stroke-width:-0.000393701; stroke-opacity:1; 
stroke-linecap:round; stroke-linejoin:round;">
</g>
<g style="fill:#000000; fill-opacity:0.0; 
stroke:#000000; stroke-width:118.11; stroke-opacity:1; 
stroke-linecap:round; stroke-linejoin:round;">
<path d="M12841 6334
L12841 5744
L12616 5744
L12559 5772
L12531 5800
L12503 5856
L12503 5941
L12531 5997
L12559 6025
L12616 6053
L12841 6053
" />
<path d="M12166 6334
L12222 6306
L12250 6278
L12278 6222
L12278 6053
L12250 5997
L12222 5969
L12166 5941
L12081 5941
L12025 5969
L11997 5997
L11969 6053
L11969 6222
L11997 6278
L12025 6306
L12081 6334
L12166 6334
" />
<path d="M11463 6306
L11519 6334
L11631 6334
L11688 6306
L11716 6278
L11744 6222
L11744 6053
L11716 5997
L11688 5969
L11631 5941
L11519 5941
L11463 5969
" />
<path d="M11209 6334
L11209 5744
" />
<path d="M11153 6109
L10984 6334
" />
<path d="M10984 5941
L11209 6165
" />
<path d="M10506 6306
L10563 6334
L10675 6334
L10731 6306
L10760 6250
L10760 6025
L10731 5969
L10675 5941
L10563 5941
L10506 5969
L10478 6025
L10478 6081
L10760 6137
" />
<path d="M10310 5941
L10085 5941
" />
<path d="M10225 5744
L10225 6250
L10197 6306
L10141 6334
L10085 6334
" />
<path d="M9691 6025
L9888 6025
" />
<path d="M9888 6334
L9888 5744
L9607 5744
" />
<path d="M9128 6334
L9128 6025
L9157 5969
L9213 5941
L9325 5941
L9382 5969
" />
<path d="M9128 6306
L9185 6334
L9325 6334
L9382 6306
L9410 6250
L9410 6194
L9382 6137
L9325 6109
L9185 6109
L9128 6081
" />
<path d="M8847 6334
L8847 5941
" />
<path d="M8847 6053
L8819 5997
L8791 5969
L8735 5941
L8679 5941
" />
<path d="M8482 6334
L8482 5941
" />
<path d="M8482 5997
L8454 5969
L8397 5941
L8313 5941
L8257 5969
L8229 6025
L8229 6334
" />
<path d="M8229 6025
L8200 5969
L8144 5941
L8060 5941
L8004 5969
L7975 6025
L7975 6334
" />
<path d="M11927 7169
L11645 7169
" />
<path d="M11983 7338
L11786 6748
L11589 7338
" />
<path d="M11392 7338
L11392 6944
" />
<path d="M11392 6748
L11420 6776
L11392 6804
L11364 6776
L11392 6748
L11392 6804
" />
<path d="M10999 6748
L10886 6748
L10830 6776
L10774 6832
L10745 6944
L10745 7141
L10774 7254
L10830 7310
L10886 7338
L10999 7338
L11055 7310
L11111 7254
L11139 7141
L11139 6944
L11111 6832
L11055 6776
L10999 6748
" />
<path d="M9733 7338
L10071 7338
" />
<path d="M9902 7338
L9902 6748
L9958 6832
L10014 6888
L10071 6916
" />
<path d="M9480 7282
L9452 7310
L9480 7338
L9508 7310
L9480 7282
L9480 7338
" />
<path d="M9086 6748
L9030 6748
L8974 6776
L8946 6804
L8918 6860
L8889 6973
L8889 7113
L8918 7226
L8946 7282
L8974 7310
L9030 7338
L9086 7338
L9143 7310
L9171 7282
L9199 7226
L9227 7113
L9227 6973
L9199 6860
L9171 6804
L9143 6776
L9086 6748
" />
<path d="M5546 22928
L5462 22956
L5321 22956
L5265 22928
L5237 22900
L5208 22844
L5208 22787
L5237 22731
L5265 22703
L5321 22675
L5433 22647
L5490 22619
L5518 22591
L5546 22534
L5546 22478
L5518 22422
L5490 22394
L5433 22366
L5293 22366
L5208 22394
" />
<path d="M4730 22928
L4787 22956
L4899 22956
L4955 22928
L4984 22872
L4984 22647
L4955 22591
L4899 22562
L4787 22562
L4730 22591
L4702 22647
L4702 22703
L4984 22759
" />
<path d="M4449 22562
L4449 22956
" />
<path d="M4449 22619
L4421 22591
L4365 22562
L4280 22562
L4224 22591
L4196 22647
L4196 22956
" />
<path d="M3943 22928
L3887 22956
L3774 22956
L3718 22928
L3690 22872
L3690 22844
L3718 22787
L3774 22759
L3859 22759
L3915 22731
L3943 22675
L3943 22647
L3915 22591
L3859 22562
L3774 22562
L3718 22591
" />
<path d="M3352 22956
L3409 22928
L3437 22900
L3465 22844
L3465 22675
L3437 22619
L3409 22591
L3352 22562
L3268 22562
L3212 22591
L3184 22619
L3156 22675
L3156 22844
L3184 22900
L3212 22928
L3268 22956
L3352 22956
" />
<path d="M2903 22956
L2903 22562
" />
<path d="M2903 22675
L2874 22619
L2846 22591
L2790 22562
L2734 22562
" />
<path d="M3625 1783
L3653 1868
L3653 2008
L3625 2065
L3597 2093
L3541 2121
L3484 2121
L3428 2093
L3400 2065
L3372 2008
L3344 1896
L3316 1840
L3288 1811
L3231 1783
L3175 1783
L3119 1811
L3091 1840
L3063 1896
L3063 2036
L3091 2121
" />
<path d="M3653 2458
L3625 2402
L3597 2374
L3541 2346
L3372 2346
L3316 2374
L3288 2402
L3259 2458
L3259 2543
L3288 2599
L3316 2627
L3372 2655
L3541 2655
L3597 2627
L3625 2599
L3653 2543
L3653 2458
" />
<path d="M3653 2993
L3625 2936
L3569 2908
L3063 2908
" />
<path d="M3625 3442
L3653 3386
L3653 3274
L3625 3218
L3569 3189
L3344 3189
L3288 3218
L3259 3274
L3259 3386
L3288 3442
L3344 3471
L3400 3471
L3456 3189
" />
<path d="M3259 3724
L3653 3724
" />
<path d="M3316 3724
L3288 3752
L3259 3808
L3259 3892
L3288 3949
L3344 3977
L3653 3977
" />
<path d="M3653 4342
L3625 4286
L3597 4258
L3541 4230
L3372 4230
L3316 4258
L3288 4286
L3259 4342
L3259 4427
L3288 4483
L3316 4511
L3372 4539
L3541 4539
L3597 4511
L3625 4483
L3653 4427
L3653 4342
" />
<path d="M3653 4792
L3259 4792
" />
<path d="M3063 4792
L3091 4764
L3119 4792
L3091 4820
L3063 4792
L3119 4792
" />
<path d="M3653 5327
L3063 5327
" />
<path d="M3625 5327
L3653 5270
L3653 5158
L3625 5102
L3597 5074
L3541 5045
L3372 5045
L3316 5074
L3288 5102
L3259 5158
L3259 5270
L3288 5327
" />
<path d="M4067 2472
L4657 2669
L4067 2866
" />
<path d="M4657 3316
L4348 3316
L4292 3288
L4263 3232
L4263 3119
L4292 3063
" />
<path d="M4629 3316
L4657 3260
L4657 3119
L4629 3063
L4573 3035
L4517 3035
L4460 3063
L4432 3119
L4432 3260
L4404 3316
" />
<path d="M4657 3682
L4629 3625
L4573 3597
L4067 3597
" />
<path d="M4263 3850
L4657 3991
L4263 4131
" />
<path d="M4629 4581
L4657 4525
L4657 4413
L4629 4356
L4573 4328
L4348 4328
L4292 4356
L4263 4413
L4263 4525
L4292 4581
L4348 4610
L4404 4610
L4460 4328
" />
<path d="M17387 8545
L16937 8545
" />
<path d="M17162 8770
L17162 8320
" />
<path d="M16375 8180
L16656 8180
L16684 8461
L16656 8433
L16600 8405
L16459 8405
L16403 8433
L16375 8461
L16347 8517
L16347 8658
L16375 8714
L16403 8742
L16459 8770
L16600 8770
L16656 8742
L16684 8714
" />
<path d="M16178 8180
L15981 8770
L15784 8180
" />
<path d="M17078 9212
L17134 9184
L17218 9184
L17303 9212
L17359 9268
L17387 9324
L17415 9437
L17415 9521
L17387 9634
L17359 9690
L17303 9746
L17218 9774
L17162 9774
L17078 9746
L17050 9718
L17050 9521
L17162 9521
" />
<path d="M16797 9774
L16797 9184
L16459 9774
L16459 9184
" />
<path d="M16178 9774
L16178 9184
L16037 9184
L15953 9212
L15897 9268
L15869 9324
L15840 9437
L15840 9521
L15869 9634
L15897 9690
L15953 9746
L16037 9774
L16178 9774
" />
<path d="M17359 10188
L17162 10778
L16965 10188
" />
<path d="M16431 10722
L16459 10750
L16544 10778
L16600 10778
L16684 10750
L16740 10694
L16768 10638
L16797 10525
L16797 10441
L16768 10328
L16740 10272
L16684 10216
L16600 10188
L16544 10188
L16459 10216
L16431 10244
" />
<path d="M15840 10722
L15869 10750
L15953 10778
L16009 10778
L16094 10750
L16150 10694
L16178 10638
L16206 10525
L16206 10441
L16178 10328
L16150 10272
L16094 10216
L16009 10188
L15953 10188
L15869 10216
L15840 10244
" />
<path d="M16684 11613
L16403 11613
" />
<path d="M16740 11782
L16544 11192
L16347 11782
" />
<path d="M16037 11192
L15981 11192
L15925 11220
L15897 11248
L15869 11304
L15840 11417
L15840 11557
L15869 11670
L15897 11726
L15925 11754
L15981 11782
L16037 11782
L16094 11754
L16122 11726
L16150 11670
L16178 11557
L16178 11417
L16150 11304
L16122 11248
L16094 11220
L16037 11192
" />
<path d="M15716 18016
L15716 17426
L15576 17426
L15491 17454
L15435 17510
L15407 17566
L15379 17679
L15379 17763
L15407 17876
L15435 17932
L15491 17988
L15576 18016
L15716 18016
" />
<path d="M15098 18016
L14985 18016
L14929 17988
L14901 17960
L14845 17876
L14817 17763
L14817 17538
L14845 17482
L14873 17454
L14929 17426
L15041 17426
L15098 17454
L15126 17482
L15154 17538
L15154 17679
L15126 17735
L15098 17763
L15041 17791
L14929 17791
L14873 17763
L14845 17735
L14817 17679
" />
<path d="M14563 17791
L14113 17791
" />
<path d="M13523 18016
L13860 18016
" />
<path d="M13692 18016
L13692 17426
L13748 17510
L13804 17566
L13860 17594
" />
<path d="M13157 17426
L13101 17426
L13045 17454
L13017 17482
L12989 17538
L12960 17651
L12960 17791
L12989 17904
L13017 17960
L13045 17988
L13101 18016
L13157 18016
L13214 17988
L13242 17960
L13270 17904
L13298 17791
L13298 17651
L13270 17538
L13242 17482
L13214 17454
L13157 17426
" />
<path d="M11200 19374
L11200 18784
L11060 18784
L10975 18812
L10919 18868
L10891 18924
L10863 19037
L10863 19121
L10891 19234
L10919 19290
L10975 19346
L11060 19374
L11200 19374
" />
<path d="M10300 19374
L10638 19374
" />
<path d="M10469 19374
L10469 18784
L10525 18868
L10582 18924
L10638 18952
" />
<path d="M11200 20378
L11200 19788
L11060 19788
L10975 19816
L10919 19872
L10891 19928
L10863 20041
L10863 20125
L10891 20238
L10919 20294
L10975 20350
L11060 20378
L11200 20378
" />
<path d="M10497 19788
L10441 19788
L10385 19816
L10357 19844
L10329 19900
L10300 20013
L10300 20153
L10329 20266
L10357 20322
L10385 20350
L10441 20378
L10497 20378
L10554 20350
L10582 20322
L10610 20266
L10638 20153
L10638 20013
L10610 19900
L10582 19844
L10554 19816
L10497 19788
" />
</g>
<g style="fill:#000000; fill-opacity:0.0; 
stroke:#000000; stroke-width:0; stroke-opacity:1; 
stroke-linecap:round; stroke-linejoin:round;">
</g>
<g style="fill:#000000; fill-opacity:1.0; 
stroke:#000000; stroke-width:0; stroke-opacity:1; 
stroke-linecap:round; stroke-linejoin:round;">
<polyline style="fill-rule:evenodd;"
points="27175,14002
27175,13136
28041,13136
28041,14002
27175,14002
" /> 
</g>
<g style="fill:#000000; fill-opacity:1.0; 
stroke:#000000; stroke-width:866.142; stroke-opacity:1; 
stroke-linecap:round; stroke-linejoin:round;">
</g>
<g style="fill:#000000; fill-opacity:0.0; 
stroke:#000000; stroke-width:866.142; stroke-opacity:1; 
stroke-linecap:round; stroke-linejoin:round;">
<path d="M31608 13569
L31608 13569
" />
</g>
<g style="fill:#000000; fill-opacity:0.0; 
stroke:#000000; stroke-width:0; stroke-opacity:1; 
stroke-linecap:round; stroke-linejoin:round;">
</g>
<g style="fill:#000000; fill-opacity:1.0; 
stroke:#000000; stroke-width:0; stroke-opacity:1; 
stroke-linecap:round; stroke-linejoin:round;">
<polyline style="fill-rule:evenodd;"
points="5029,10668
5029,9290
6407,9290
6407,10668
5029,10668
" /> 
<polyline style="fill-rule:evenodd;"
points="2667,10668
2667,9290
4045,9290
4045,10668
2667,10668
" /> 
<polyline style="fill-rule:evenodd;"
points="3848,12518
3848,11140
5226,11140
5226,12518
3848,12518
" /> 
<circle cx="3418.5" cy="19516.1" r="718.504" /> 
</g>
<g style="fill:#000000; fill-opacity:1.0; 
stroke:#000000; stroke-width:39.3701; stroke-opacity:1; 
stroke-linecap:round; stroke-linejoin:round;">
</g>
<g style="fill:#000000; fill-opacity:1.0; 
stroke:#000000; stroke-width:0; stroke-opacity:1; 
stroke-linecap:round; stroke-linejoin:round;">
<circle cx="3418.5" cy="14842.9" r="718.504" /> 
</g>
<g style="fill:#000000; fill-opacity:1.0; 
stroke:#000000; stroke-width:39.3701; stroke-opacity:1; 
stroke-linecap:round; stroke-linejoin:round;">
</g>
<g style="fill:#000000; fill-opacity:1.0; 
stroke:#000000; stroke-width:0; stroke-opacity:1; 
stroke-linecap:round; stroke-linejoin:round;">
<polyline style="fill-rule:evenodd;"
points="5623,15134
6213,15134
6213,15724
5623,15724
5623,15134
" /> 
<circle cx="6918.5" cy="15929.5" r="295.276" /> 
</g>
<g style="fill:#000000; fill-opacity:1.0; 
stroke:#000000; stroke-width:39.3701; stroke-opacity:1; 
stroke-linecap:round; stroke-linejoin:round;">
</g>
<g style="fill:#000000; fill-opacity:1.0; 
stroke:#000000; stroke-width:0; stroke-opacity:1; 
stroke-linecap:round; stroke-linejoin:round;">
<circle cx="5918.5" cy="16429.5" r="295.276" /> 
</g>
<g style="fill:#000000; fill-opacity:1.0; 
stroke:#000000; stroke-width:39.3701; stroke-opacity:1; 
stroke-linecap:round; stroke-linejoin:round;">
</g>
<g style="fill:#000000; fill-opacity:1.0; 
stroke:#000000; stroke-width:0; stroke-opacity:1; 
stroke-linecap:round; stroke-linejoin:round;">
<circle cx="6918.5" cy="16929.5" r="295.276" /> 
</g>
<g style="fill:#000000; fill-opacity:1.0; 
stroke:#000000; stroke-width:39.3701; stroke-opacity:1; 
stroke-linecap:round; stroke-linejoin:round;">
</g>
<g style="fill:#000000; fill-opacity:1.0; 
stroke:#000000; stroke-width:0; stroke-opacity:1; 
stroke-linecap:round; stroke-linejoin:round;">
<circle cx="5918.5" cy="17429.5" r="295.276" /> 
</g>
<g style="fill:#000000; fill-opacity:1.0; 
stroke:#000000; stroke-width:39.3701; stroke-opacity:1; 
stroke-linecap:round; stroke-linejoin:round;">
</g>
<g style="fill:#000000; fill-opacity:1.0; 
stroke:#000000; stroke-width:0; stroke-opacity:1; 
stroke-linecap:round; stroke-linejoin:round;">
<circle cx="6918.5" cy="17929.5" r="295.276" /> 
</g>
<g style="fill:#000000; fill-opacity:1.0; 
stroke:#000000; stroke-width:39.3701; stroke-opacity:1; 
stroke-linecap:round; stroke-linejoin:round;">
</g>
<g style="fill:#000000; fill-opacity:1.0; 
stroke:#000000; stroke-width:0; stroke-opacity:1; 
stroke-linecap:round; stroke-linejoin:round;">
<circle cx="5918.5" cy="18429.5" r="295.276" /> 
</g>
<g style="fill:#000000; fill-opacity:1.0; 
stroke:#000000; stroke-width:39.3701; stroke-opacity:1; 
stroke-linecap:round; stroke-linejoin:round;">
</g>
<g style="fill:#000000; fill-opacity:1.0; 
stroke:#000000; stroke-width:0; stroke-opacity:1; 
stroke-linecap:round; stroke-linejoin:round;">
<circle cx="6918.5" cy="18929.5" r="295.276" /> 
</g>
<g style="fill:#000000; fill-opacity:1.0; 
stroke:#000000; stroke-width:39.3701; stroke-opacity:1; 
stroke-linecap:round; stroke-linejoin:round;">
</g>
<g style="fill:#000000; fill-opacity:1.0; 
stroke:#000000; stroke-width:0; stroke-opacity:1; 
stroke-linecap:round; stroke-linejoin:round;">
<polyline style="fill-rule:evenodd;"
points="11883,8914
11883,8244
12553,8244
12553,8914
11883,8914
" /> 
</g>
<g style="fill:#000000; fill-opacity:1.0; 
stroke:#000000; stroke-width:669.291; stroke-opacity:1; 
stroke-linecap:round; stroke-linejoin:round;">
</g>
<g style="fill:#000000; fill-opacity:0.0; 
stroke:#000000; stroke-width:669.291; stroke-opacity:1; 
stroke-linecap:round; stroke-linejoin:round;">
<path d="M12218 9579
L12218 9579
" />
<path d="M12218 10579
L12218 10579
" />
<path d="M12218 11579
L12218 11579
" />
</g>
<g style="fill:#000000; fill-opacity:0.0; 
stroke:#000000; stroke-width:0; stroke-opacity:1; 
stroke-linecap:round; stroke-linejoin:round;">
</g>
<g style="fill:#000000; fill-opacity:1.0; 
stroke:#000000; stroke-width:0; stroke-opacity:1; 
stroke-linecap:round; stroke-linejoin:round;">
<polyline style="fill-rule:evenodd;"
points="11883,17314
11883,16644
12553,16644
12553,17314
11883,17314
" /> 
</g>
<g style="fill:#000000; fill-opacity:1.0; 
stroke:#000000; stroke-width:669.291; stroke-opacity:1; 
stroke-linecap:round; stroke-linejoin:round;">
</g>
<g style="fill:#000000; fill-opacity:0.0; 
stroke:#000000; stroke-width:669.291; stroke-opacity:1; 
stroke-linecap:round; stroke-linejoin:round;">
<path d="M12218 17979
L12218 17979
" />
<path d="M12218 18979
L12218 18979
" />
<path d="M12218 19979
L12218 19979
" />
</g>
<g style="fill:#000000; fill-opacity:0.0; 
stroke:#000000; stroke-width:0; stroke-opacity:1; 
stroke-linecap:round; stroke-linejoin:round;">
</g>
<g style="fill:#000000; fill-opacity:1.0; 
stroke:#000000; stroke-width:0; stroke-opacity:1; 
stroke-linecap:round; stroke-linejoin:round;">
<polyline style="fill-rule:evenodd;"
points="8309,5320
7127,5320
7127,4138
8309,4138
8309,5320
" /> 
<circle cx="7718.5" cy="2729.53" r="590.551" /> 
</g>
<g style="fill:#000000; fill-opacity:1.0; 
stroke:#000000; stroke-width:39.3701; stroke-opacity:1; 
stroke-linecap:round; stroke-linejoin:round;">
</g>
<g style="fill:#000000; fill-opacity:1.0; 
stroke:#000000; stroke-width:0; stroke-opacity:1; 
stroke-linecap:round; stroke-linejoin:round;">
<circle cx="3361.89" cy="31729.5" r="718.504" /> 
</g>
<g style="fill:#000000; fill-opacity:1.0; 
stroke:#000000; stroke-width:39.3701; stroke-opacity:1; 
stroke-linecap:round; stroke-linejoin:round;">
</g>
<g style="fill:#000000; fill-opacity:1.0; 
stroke:#000000; stroke-width:0; stroke-opacity:1; 
stroke-linecap:round; stroke-linejoin:round;">
<circle cx="8035.12" cy="31729.5" r="718.504" /> 
</g>
<g style="fill:#000000; fill-opacity:1.0; 
stroke:#000000; stroke-width:39.3701; stroke-opacity:1; 
stroke-linecap:round; stroke-linejoin:round;">
</g>
<g style="fill:#000000; fill-opacity:1.0; 
stroke:#000000; stroke-width:0; stroke-opacity:1; 
stroke-linecap:round; stroke-linejoin:round;">
<polyline style="fill-rule:evenodd;"
points="7743,33934
7743,34524
7153,34524
7153,33934
7743,33934
" /> 
<circle cx="6948.5" cy="35229.5" r="295.276" /> 
</g>
<g style="fill:#000000; fill-opacity:1.0; 
stroke:#000000; stroke-width:39.3701; stroke-opacity:1; 
stroke-linecap:round; stroke-linejoin:round;">
</g>
<g style="fill:#000000; fill-opacity:1.0; 
stroke:#000000; stroke-width:0; stroke-opacity:1; 
stroke-linecap:round; stroke-linejoin:round;">
<circle cx="6448.5" cy="34229.5" r="295.276" /> 
</g>
<g style="fill:#000000; fill-opacity:1.0; 
stroke:#000000; stroke-width:39.3701; stroke-opacity:1; 
stroke-linecap:round; stroke-linejoin:round;">
</g>
<g style="fill:#000000; fill-opacity:1.0; 
stroke:#000000; stroke-width:0; stroke-opacity:1; 
stroke-linecap:round; stroke-linejoin:round;">
<circle cx="5948.5" cy="35229.5" r="295.276" /> 
</g>
<g style="fill:#000000; fill-opacity:1.0; 
stroke:#000000; stroke-width:39.3701; stroke-opacity:1; 
stroke-linecap:round; stroke-linejoin:round;">
</g>
<g style="fill:#000000; fill-opacity:1.0; 
stroke:#000000; stroke-width:0; stroke-opacity:1; 
stroke-linecap:round; stroke-linejoin:round;">
<circle cx="5448.5" cy="34229.5" r="295.276" /> 
</g>
<g style="fill:#000000; fill-opacity:1.0; 
stroke:#000000; stroke-width:39.3701; stroke-opacity:1; 
stroke-linecap:round; stroke-linejoin:round;">
</g>
<g style="fill:#000000; fill-opacity:1.0; 
stroke:#000000; stroke-width:0; stroke-opacity:1; 
stroke-linecap:round; stroke-linejoin:round;">
<circle cx="4948.5" cy="35229.5" r="295.276" /> 
</g>
<g style="fill:#000000; fill-opacity:1.0; 
stroke:#000000; stroke-width:39.3701; stroke-opacity:1; 
stroke-linecap:round; stroke-linejoin:round;">
</g>
<g style="fill:#000000; fill-opacity:1.0; 
stroke:#000000; stroke-width:0; stroke-opacity:1; 
stroke-linecap:round; stroke-linejoin:round;">
<circle cx="4448.5" cy="34229.5" r="295.276" /> 
</g>
<g style="fill:#000000; fill-opacity:1.0; 
stroke:#000000; stroke-width:39.3701; stroke-opacity:1; 
stroke-linecap:round; stroke-linejoin:round;">
</g>
<g style="fill:#000000; fill-opacity:1.0; 
stroke:#000000; stroke-width:0; stroke-opacity:1; 
stroke-linecap:round; stroke-linejoin:round;">
<circle cx="3948.5" cy="35229.5" r="295.276" /> 
</g>
<g style="fill:#000000; fill-opacity:1.0; 
stroke:#000000; stroke-width:39.3701; stroke-opacity:1; 
stroke-linecap:round; stroke-linejoin:round;">
</g>
<g style="fill:#000000; fill-opacity:1.0; 
stroke:#000000; stroke-width:0; stroke-opacity:1; 
stroke-linecap:round; stroke-linejoin:round;">
<polyline style="fill-rule:evenodd;"
points="6353,38554
7023,38554
7023,39224
6353,39224
6353,38554
" /> 
</g>
<g style="fill:#000000; fill-opacity:1.0; 
stroke:#000000; stroke-width:669.291; stroke-opacity:1; 
stroke-linecap:round; stroke-linejoin:round;">
</g>
<g style="fill:#000000; fill-opacity:0.0; 
stroke:#000000; stroke-width:669.291; stroke-opacity:1; 
stroke-linecap:round; stroke-linejoin:round;">
<path d="M5688 38889
L5688 38889
" />
<path d="M4688 38889
L4688 38889
" />
</g>
<g style="fill:#000000; fill-opacity:0.0; 
stroke:#000000; stroke-width:0; stroke-opacity:1; 
stroke-linecap:round; stroke-linejoin:round;">
</g>
<g style="fill:#000000; fill-opacity:1.0; 
stroke:#000000; stroke-width:0; stroke-opacity:1; 
stroke-linecap:round; stroke-linejoin:round;">
<polyline style="fill-rule:evenodd;"
points="24964,8250
25672,8250
25672,8958
24964,8958
24964,8250
" /> 
</g>
<g style="fill:#000000; fill-opacity:1.0; 
stroke:#000000; stroke-width:708.661; stroke-opacity:1; 
stroke-linecap:round; stroke-linejoin:round;">
</g>
<g style="fill:#000000; fill-opacity:0.0; 
stroke:#000000; stroke-width:708.661; stroke-opacity:1; 
stroke-linecap:round; stroke-linejoin:round;">
<path d="M25318 9604
L25318 9604
" />
<path d="M25318 10604
L25318 10604
" />
</g>
<g style="fill:#000000; fill-opacity:1.0; 
stroke:#000000; stroke-width:0; stroke-opacity:1; 
stroke-linecap:round; stroke-linejoin:round;">
<circle cx="27508.5" cy="5469.53" r="314.961" /> 
</g>
<g style="fill:#000000; fill-opacity:1.0; 
stroke:#000000; stroke-width:39.3701; stroke-opacity:1; 
stroke-linecap:round; stroke-linejoin:round;">
</g>
<g style="fill:#000000; fill-opacity:1.0; 
stroke:#000000; stroke-width:629.921; stroke-opacity:1; 
stroke-linecap:round; stroke-linejoin:round;">
</g>
<g style="fill:#000000; fill-opacity:0.0; 
stroke:#000000; stroke-width:629.921; stroke-opacity:1; 
stroke-linecap:round; stroke-linejoin:round;">
<path d="M31508 5469
L31508 5469
" />
</g>
<g style="fill:#000000; fill-opacity:0.0; 
stroke:#000000; stroke-width:680; stroke-opacity:1; 
stroke-linecap:round; stroke-linejoin:round;">
<path d="M36283 21369
L36283 21369
" />
<path d="M34283 21369
L34283 21369
" />
<path d="M33283 21369
L33283 21369
" />
<path d="M32283 21369
L32283 21369
" />
<path d="M31283 21369
L31283 21369
" />
<path d="M30283 21369
L30283 21369
" />
<path d="M29283 21369
L29283 21369
" />
<path d="M41283 2369
L41283 2369
" />
<path d="M40283 2369
L40283 2369
" />
<path d="M39283 2369
L39283 2369
" />
<path d="M38283 2369
L38283 2369
" />
<path d="M37283 2369
L37283 2369
" />
<path d="M36283 2369
L36283 2369
" />
<path d="M35283 2369
L35283 2369
" />
<path d="M34283 2369
L34283 2369
" />
<path d="M26683 2369
L26683 2369
" />
<path d="M32683 2369
L32683 2369
" />
<path d="M31683 2369
L31683 2369
" />
<path d="M30683 2369
L30683 2369
" />
<path d="M25683 2369
L25683 2369
" />
<path d="M27683 2369
L27683 2369
" />
<path d="M28683 2369
L28683 2369
" />
<path d="M29683 2369
L29683 2369
" />
<path d="M37283 21369
L37283 21369
" />
<path d="M38283 21369
L38283 21369
" />
<path d="M39283 21369
L39283 21369
" />
<path d="M40283 21369
L40283 21369
" />
<path d="M41283 21369
L41283 21369
" />
</g>
<g style="fill:#000000; fill-opacity:0.0; 
stroke:#000000; stroke-width:590.551; stroke-opacity:1; 
stroke-linecap:round; stroke-linejoin:round;">
<path d="M14728 13569
L27608 13569
" />
<path d="M13518 12359
L14728 13569
" />
<path d="M13518 12329
L13518 12359
" />
<path d="M13518 10579
L13518 12329
" />
<path d="M34283 20344
L34283 21369
" />
<path d="M33818 19879
L34283 20344
" />
<path d="M20618 19879
L33818 19879
" />
<path d="M18968 21529
L20618 19879
" />
<path d="M9768 21529
L18968 21529
" />
<path d="M9218 20979
L9768 21529
" />
<path d="M9218 13579
L9218 20979
" />
<path d="M10018 12779
L9218 13579
" />
<path d="M13068 12779
L10018 12779
" />
<path d="M13518 12329
L13068 12779
" />
<path d="M12218 10579
L13518 10579
" />
<path d="M12968 4729
L7718 4729
" />
<path d="M14518 6279
L12968 4729
" />
<path d="M14518 9579
L14518 6279
" />
<path d="M13518 10579
L14518 9579
" />
<path d="M5718 9979
L5718 6729
" />
<path d="M5718 6729
L7718 4729
" />
</g>
<g style="fill:#000000; fill-opacity:0.0; 
stroke:#000000; stroke-width:393.701; stroke-opacity:1; 
stroke-linecap:round; stroke-linejoin:round;">
<path d="M7718 2729
L20608 2729
" />
<path d="M23828 9059
L24373 9604
" />
<path d="M23828 5949
L23828 9059
" />
<path d="M20608 2729
L23828 5949
" />
<path d="M31608 13569
L31608 12789
" />
<path d="M24373 9604
L25318 9604
" />
<path d="M23828 10149
L24373 9604
" />
<path d="M23828 11469
L23828 10149
" />
<path d="M24708 12349
L23828 11469
" />
<path d="M31168 12349
L24708 12349
" />
<path d="M31608 12789
L31168 12349
" />
</g>
<g style="fill:#000000; fill-opacity:0.0; 
stroke:#000000; stroke-width:590.551; stroke-opacity:1; 
stroke-linecap:round; stroke-linejoin:round;">
<path d="M6948 35229
L6948 36769
" />
<path d="M5688 39749
L5688 38889
" />
<path d="M5928 39989
L5688 39749
" />
<path d="M7188 39989
L5928 39989
" />
<path d="M7888 39289
L7188 39989
" />
<path d="M7888 37709
L7888 39289
" />
<path d="M6948 36769
L7888 37709
" />
<path d="M6918 12579
L6668 12579
" />
<path d="M31283 22314
L31283 21369
" />
<path d="M30718 22879
L31283 22314
" />
<path d="M7818 22879
L30718 22879
" />
<path d="M4818 19879
L7818 22879
" />
<path d="M4818 14429
L4818 19879
" />
<path d="M6668 12579
L4818 14429
" />
<path d="M6918 15929
L6918 12579
" />
<path d="M6918 12579
L6918 11929
" />
<path d="M10268 8579
L12218 8579
" />
<path d="M6918 11929
L10268 8579
" />
</g>
<g style="fill:#000000; fill-opacity:0.0; 
stroke:#000000; stroke-width:393.701; stroke-opacity:1; 
stroke-linecap:round; stroke-linejoin:round;">
<path d="M5948 35229
L5948 37309
" />
<path d="M6688 38049
L6688 38889
" />
<path d="M5948 37309
L6688 38049
" />
<path d="M6918 16929
L7968 16929
" />
<path d="M9318 11579
L12218 11579
" />
<path d="M8268 12629
L9318 11579
" />
<path d="M8268 16629
L8268 12629
" />
<path d="M7968 16929
L8268 16629
" />
<path d="M12768 16429
L12218 16979
" />
<path d="M37818 16429
L12768 16429
" />
<path d="M38518 15729
L37818 16429
" />
<path d="M38518 4629
L38518 15729
" />
<path d="M37418 3529
L38518 4629
" />
<path d="M32018 3529
L37418 3529
" />
<path d="M31683 3194
L32018 3529
" />
<path d="M31683 2369
L31683 3194
" />
<path d="M31508 5469
L36388 5469
" />
<path d="M10938 17979
L12218 17979
" />
<path d="M10608 17649
L10938 17979
" />
<path d="M10608 16349
L10608 17649
" />
<path d="M11648 15309
L10608 16349
" />
<path d="M37108 15309
L11648 15309
" />
<path d="M37448 14969
L37108 15309
" />
<path d="M37448 6529
L37448 14969
" />
<path d="M36388 5469
L37448 6529
" />
<path d="M15718 18979
L12218 18979
" />
<path d="M17318 17379
L15718 18979
" />
<path d="M38918 17379
L17318 17379
" />
<path d="M39468 16829
L38918 17379
" />
<path d="M39468 7279
L39468 16829
" />
<path d="M40283 6464
L39468 7279
" />
<path d="M40283 2369
L40283 6464
" />
<path d="M41283 2369
L41283 6964
" />
<path d="M16518 19979
L12218 19979
" />
<path d="M18118 18379
L16518 19979
" />
<path d="M39568 18379
L18118 18379
" />
<path d="M40718 17229
L39568 18379
" />
<path d="M40718 7529
L40718 17229
" />
<path d="M41283 6964
L40718 7529
" />
<path d="M27508 5469
L26648 5469
" />
<path d="M25318 6799
L25318 8604
" />
<path d="M26648 5469
L25318 6799
" />
</g>
<g style="fill:#000000; fill-opacity:1.0; 
stroke:#000000; stroke-width:100; stroke-opacity:1; 
stroke-linecap:round; stroke-linejoin:round;">
<polyline style="fill-rule:evenodd;"
points="43938,23800
1948,23800
1948,21967
2428,21967
2428,23471
5908,23471
5908,21967
2428,21967
1948,21967
1948,15034
2449,15034
2596,15390
2869,15663
3225,15811
3610,15811
3966,15664
4239,15392
4273,15310
4273,19048
4240,18968
3967,18695
3611,18547
3226,18547
2870,18694
2597,18966
2450,19322
2449,19707
2596,20064
2869,20336
3225,20484
3610,20484
3966,20337
4239,20065
4287,19949
4314,20088
4356,20150
4432,20265
7432,23265
7609,23383
7818,23424
30718,23424
30927,23383
31104,23265
31669,22700
31688,22670
31787,22523
31828,22314
31828,21729
31933,21844
32142,21942
32233,21894
32233,21419
32333,21419
32333,21894
32424,21942
32633,21844
32783,21680
32933,21844
33142,21942
33233,21894
33233,21419
32333,21419
32233,21419
32225,21419
32225,21319
32233,21319
32233,20844
32333,20844
32333,21319
33233,21319
33233,20844
33142,20796
32933,20894
32783,21058
32633,20894
32424,20796
32333,20844
32233,20844
32142,20796
31933,20894
31783,21058
31712,20952
31520,20824
31295,20779
31271,20779
31046,20824
30854,20952
30783,21058
30712,20952
30520,20824
30295,20779
30271,20779
30046,20824
29854,20952
29783,21058
29712,20952
29520,20824
29295,20779
29271,20779
29046,20824
28854,20952
28726,21143
28681,21369
28726,21595
28854,21786
29046,21914
29271,21959
29295,21959
29520,21914
29712,21786
29783,21680
29854,21786
30046,21914
30271,21959
30295,21959
30520,21914
30712,21786
30738,21747
30738,22088
30492,22334
8044,22334
5363,19653
5363,19312
6606,19312
6633,19406
6837,19479
7054,19468
7203,19406
7230,19312
6918,19000
6606,19312
5363,19312
5363,18812
5606,18812
5633,18906
5837,18979
6054,18968
6203,18906
6219,18848
6368,18848
6379,19065
6441,19214
6536,19241
6847,18929
6989,18929
7300,19241
7395,19214
7468,19010
7457,18793
7395,18644
7300,18617
6989,18929
6847,18929
6536,18617
6441,18644
6368,18848
6219,18848
6230,18812
5918,18500
5606,18812
5363,18812
5363,18348
5368,18348
5379,18565
5441,18714
5536,18741
5847,18429
5989,18429
6300,18741
6395,18714
6468,18510
6458,18312
6606,18312
6633,18406
6692,18427
6633,18452
6606,18547
6918,18858
7230,18547
7203,18452
7144,18431
7203,18406
7230,18312
6918,18000
6606,18312
6458,18312
6457,18293
6395,18144
6300,18117
5989,18429
5847,18429
5536,18117
5441,18144
5368,18348
5363,18348
5363,17812
5606,17812
5633,17906
5692,17927
5633,17952
5606,18047
5918,18358
6230,18047
6203,17952
6144,17931
6203,17906
6219,17848
6368,17848
6379,18065
6441,18214
6536,18241
6847,17929
6989,17929
7300,18241
7395,18214
7468,18010
7457,17793
7395,17644
7300,17617
6989,17929
6847,17929
6536,17617
6441,17644
6368,17848
6219,17848
6230,17812
5918,17500
5606,17812
5363,17812
5363,17348
5368,17348
5379,17565
5441,17714
5536,17741
5847,17429
5989,17429
6300,17741
6395,17714
6468,17510
6457,17293
6395,17144
6300,17117
5989,17429
5847,17429
5536,17117
5441,17144
5368,17348
5363,17348
5363,16812
5606,16812
5633,16906
5692,16927
5633,16952
5606,17047
5918,17358
6230,17047
6203,16952
6144,16931
6203,16906
6230,16812
5918,16500
5606,16812
5363,16812
5363,16348
5368,16348
5379,16565
5441,16714
5536,16741
5847,16429
5989,16429
6300,16741
6395,16714
6468,16510
6457,16293
6395,16144
6300,16117
5989,16429
5847,16429
5536,16117
5441,16144
5368,16348
5363,16348
5363,15084
5373,15084
5373,15317
5435,15379
5868,15379
5868,14946
5806,14884
5573,14884
5481,14922
5411,14992
5373,15084
5363,15084
5363,14655
6373,13645
6373,14940
6355,14922
6263,14884
6031,14884
5968,14946
5968,15379
5976,15379
5976,15479
5968,15479
5968,15487
5868,15487
5868,15479
5435,15479
5373,15542
5373,15774
5411,15866
5481,15936
5573,15974
5627,15974
5606,16047
5918,16358
6230,16047
6209,15974
6263,15974
6355,15936
6373,15918
6373,15929
6373,16037
6455,16237
6609,16391
6700,16429
6610,16466
6456,16620
6373,16820
6373,17037
6455,17237
6609,17391
6694,17426
6633,17452
6606,17547
6918,17858
7230,17547
7203,17452
7137,17428
7226,17392
7242,17376
7968,17376
8139,17342
8284,17245
8584,16945
8628,16879
8673,16812
8673,20979
8714,21188
8803,21320
8832,21365
9382,21915
9559,22033
9768,22074
18968,22074
19177,22033
19354,21915
19725,21543
20903,21543
21037,21867
21284,22115
21607,22249
21957,22249
22281,22115
22529,21868
22663,21545
22663,21195
22529,20871
22282,20624
21959,20489
21609,20489
21285,20623
21037,20870
20903,21193
20903,21543
19725,21543
20844,20424
33592,20424
33738,20570
33738,21009
33633,20894
33424,20796
33333,20844
33333,21319
33341,21319
33341,21419
33333,21419
33333,21894
33424,21942
33633,21844
33783,21680
33854,21786
34046,21914
34271,21959
34295,21959
34520,21914
34712,21786
34840,21595
34885,21369
35681,21369
35726,21595
35854,21786
36046,21914
36271,21959
36295,21959
36520,21914
36712,21786
36783,21680
36854,21786
37046,21914
37271,21959
37295,21959
37520,21914
37712,21786
37783,21680
37854,21786
38046,21914
38271,21959
38295,21959
38520,21914
38712,21786
38783,21680
38854,21786
39046,21914
39271,21959
39295,21959
39520,21914
39712,21786
39783,21680
39854,21786
40046,21914
40271,21959
40295,21959
40520,21914
40712,21786
40783,21680
40854,21786
41046,21914
41271,21959
41295,21959
41520,21914
41712,21786
41840,21595
41885,21369
41840,21143
41712,20952
41520,20824
41295,20779
41271,20779
41046,20824
40854,20952
40783,21058
40712,20952
40520,20824
40295,20779
40271,20779
40046,20824
39854,20952
39783,21058
39712,20952
39520,20824
39295,20779
39271,20779
39046,20824
38854,20952
38783,21058
38712,20952
38520,20824
38295,20779
38271,20779
38046,20824
37854,20952
37783,21058
37712,20952
37520,20824
37295,20779
37271,20779
37046,20824
36854,20952
36783,21058
36712,20952
36520,20824
36295,20779
36271,20779
36046,20824
35854,20952
35726,21143
35681,21369
34885,21369
34840,21143
34828,21126
34828,20344
34809,20249
34787,20135
34669,19958
34253,19543
41403,19543
41537,19867
41784,20115
42107,20249
42457,20249
42781,20115
43029,19868
43163,19545
43163,19195
43029,18871
42782,18624
42459,18489
42109,18489
41785,18623
41537,18870
41403,19193
41403,19543
34253,19543
34204,19493
34073,19406
34027,19375
33818,19334
20618,19334
20409,19375
20363,19406
20232,19493
18742,20984
9994,20984
9763,20753
9763,18385
9938,18385
9938,20892
11591,20892
11591,18426
11843,18426
11923,18479
11793,18566
11666,18755
11622,18979
11666,19203
11793,19392
11923,19479
11793,19566
11666,19755
11622,19979
11666,20203
11793,20392
11983,20519
12207,20564
12229,20564
12453,20519
12593,20426
16518,20426
16689,20392
16834,20295
18303,18826
39568,18826
39739,18792
39884,18695
41034,17545
41058,17510
41131,17400
41165,17229
41165,8543
41403,8543
41537,8867
41784,9115
42107,9249
42457,9249
42781,9115
43029,8868
43163,8545
43163,8195
43029,7871
42782,7624
42459,7489
42109,7489
41785,7623
41537,7870
41403,8193
41403,8543
41165,8543
41165,7714
41599,7280
41645,7212
41696,7135
41730,6964
41730,2759
41840,2595
41885,2369
41840,2143
41712,1952
41520,1824
41295,1779
41271,1779
41046,1824
40854,1952
40783,2058
40712,1952
40520,1824
40295,1779
40271,1779
40046,1824
39854,1952
39783,2058
39712,1952
39520,1824
39295,1779
39271,1779
39046,1824
38854,1952
38783,2058
38712,1952
38520,1824
38295,1779
38271,1779
38046,1824
37854,1952
37783,2058
37712,1952
37520,1824
37295,1779
37271,1779
37046,1824
36854,1952
36783,2058
36712,1952
36520,1824
36295,1779
36271,1779
36046,1824
35854,1952
35783,2058
35712,1952
35520,1824
35295,1779
35271,1779
35046,1824
34854,1952
34783,2058
34712,1952
34520,1824
34295,1779
34271,1779
34046,1824
33854,1952
33726,2143
33681,2369
33726,2595
33854,2786
34046,2914
34271,2959
34295,2959
34520,2914
34712,2786
34783,2680
34854,2786
35046,2914
35271,2959
35295,2959
35520,2914
35712,2786
35783,2680
35854,2786
36046,2914
36271,2959
36295,2959
36520,2914
36712,2786
36783,2680
36854,2786
37046,2914
37271,2959
37295,2959
37520,2914
37712,2786
37783,2680
37854,2786
38046,2914
38271,2959
38295,2959
38520,2914
38712,2786
38783,2680
38854,2786
39046,2914
39271,2959
39295,2959
39520,2914
39712,2786
39783,2680
39836,2759
39836,6279
39152,6963
39055,7108
39021,7279
39021,16644
38733,16932
17318,16932
17147,16966
17041,17037
17002,17063
16107,17958
16107,17027
12808,17027
12808,17021
12953,16876
37818,16876
37989,16842
38134,16745
38834,16045
38876,15982
38931,15900
38965,15729
38965,4629
38943,4520
38931,4458
38834,4313
37734,3213
37705,3194
37589,3116
37418,3082
32203,3082
32130,3009
32130,2759
32183,2680
32254,2786
32446,2914
32671,2959
32695,2959
32920,2914
33112,2786
33240,2595
33285,2369
33240,2143
33112,1952
32920,1824
32695,1779
32671,1779
32446,1824
32254,1952
32183,2058
32112,1952
31920,1824
31695,1779
31671,1779
31446,1824
31254,1952
31183,2058
31112,1952
30920,1824
30695,1779
30671,1779
30446,1824
30254,1952
30183,2058
30112,1952
29920,1824
29695,1779
29671,1779
29446,1824
29254,1952
29183,2058
29112,1952
28920,1824
28695,1779
28671,1779
28446,1824
28254,1952
28183,2058
28112,1952
27920,1824
27695,1779
27671,1779
27446,1824
27254,1952
27183,2058
27033,1894
26824,1796
26733,1844
26733,2319
26741,2319
26741,2419
26733,2419
26733,2894
26824,2942
27033,2844
27183,2680
27254,2786
27446,2914
27671,2959
27695,2959
27920,2914
28112,2786
28183,2680
28254,2786
28446,2914
28671,2959
28695,2959
28920,2914
29112,2786
29183,2680
29254,2786
29446,2914
29671,2959
29695,2959
29920,2914
30112,2786
30183,2680
30254,2786
30446,2914
30671,2959
30695,2959
30920,2914
31112,2786
31183,2680
31236,2759
31236,3194
31270,3365
31321,3441
31367,3510
31702,3845
31847,3942
32018,3976
37233,3976
38071,4814
38071,15544
37633,15982
12768,15982
12597,16016
12452,16113
12176,16389
11883,16389
11791,16407
11706,16462
11649,16545
11628,16644
11628,17314
11646,17406
11701,17491
11760,17532
11123,17532
11055,17464
11055,16534
11833,15756
37108,15756
37279,15722
37424,15625
37764,15285
37766,15282
37861,15140
37895,14969
37895,6529
37892,6517
37861,6358
37764,6213
36704,5153
36646,5115
36559,5056
36388,5022
31848,5022
31735,4947
31519,4904
31497,4904
31281,4947
31097,5070
30975,5253
30932,5469
30975,5685
31097,5869
31281,5991
31497,6034
31519,6034
31735,5991
31848,5916
36203,5916
37001,6714
37001,14784
36923,14862
11648,14862
11477,14896
11332,14993
10292,16033
10195,16178
10161,16349
10161,17649
10195,17820
10214,17848
10292,17965
10622,18295
10756,18385
9938,18385
9763,18385
9763,13805
10244,13324
13068,13324
13277,13283
13454,13165
13503,13115
14342,13955
14519,14073
14728,14114
26950,14114
26992,14180
27076,14237
27175,14257
28041,14257
28134,14240
28219,14185
28276,14101
28296,14002
28296,13136
28279,13043
28224,12958
28140,12901
28041,12881
27175,12881
27082,12898
26997,12953
26949,13024
14954,13024
14063,12133
14063,10805
14904,9965
14959,9881
15022,9788
15063,9579
15063,7781
15478,7781
15478,12296
17778,12296
17778,7781
15478,7781
15063,7781
15063,6279
15050,6213
15022,6070
14904,5893
13354,4343
13177,4225
12968,4184
8563,4184
8563,4138
8546,4046
8491,3961
8408,3904
8309,3884
7127,3884
7035,3901
6950,3956
6893,4039
6873,4138
6873,4803
5332,6343
5214,6520
5173,6729
5173,9035
5029,9035
4936,9053
4851,9107
4794,9191
4774,9290
4774,10668
4792,10761
4846,10846
4905,10886
4173,10886
4186,10880
4257,10810
4295,10718
4295,10092
4232,10029
3406,10029
3406,10856
3468,10918
3732,10918
3670,10958
3613,11041
3593,11140
3593,12518
3610,12611
3665,12696
3749,12753
3848,12773
5226,12773
5319,12756
5404,12701
5461,12618
5481,12518
5481,11140
5463,11048
5409,10963
5350,10923
6407,10923
6500,10905
6585,10851
6642,10767
6662,10668
6662,9290
6644,9197
6590,9112
6506,9055
6407,9035
6263,9035
6263,6955
7585,5633
7585,7852
13231,7852
13231,5763
13973,6505
13973,9353
13292,10034
12579,10034
12719,9881
12786,9720
12738,9629
12268,9629
12268,9637
12168,9637
12168,9629
11698,9629
11650,9720
11717,9881
11871,10050
11927,10076
11793,10166
11666,10355
11622,10579
11666,10803
11793,10992
11923,11079
11843,11132
9318,11132
9147,11166
9002,11263
7952,12313
7855,12458
7821,12629
7821,16444
7783,16482
7242,16482
7227,16467
7136,16429
7226,16392
7380,16238
7463,16038
7463,15821
7463,15821
7463,12155
10494,9124
11749,9124
11784,9148
11827,9157
11717,9277
11650,9439
11698,9529
12168,9529
12168,9521
12268,9521
12268,9529
12738,9529
12786,9439
12719,9277
12610,9158
12645,9151
12730,9096
12787,9013
12808,8914
12808,8244
12790,8152
12735,8067
12652,8010
12553,7989
11883,7989
11791,8007
11749,8034
10268,8034
10059,8075
9937,8157
9882,8193
6532,11543
6414,11720
6373,11929
6373,12133
6282,12193
4432,14043
4314,14220
4280,14392
4240,14295
3967,14022
3611,13874
3226,13874
2870,14021
2597,14293
2450,14649
2449,15034
1948,15034
1948,10092
2417,10092
2417,10718
2455,10810
2525,10880
2617,10918
3243,10918
3306,10856
3306,10029
2479,10029
2417,10092
1948,10092
1948,9240
2417,9240
2417,9867
2479,9929
3306,9929
3306,9103
3406,9103
3406,9929
4232,9929
4295,9867
4295,9240
4257,9148
4186,9078
4095,9040
3468,9040
3406,9103
3306,9103
3243,9040
2617,9040
2525,9078
2455,9148
2417,9240
1948,9240
1948,1421
2664,1421
2664,5717
5171,5717
5171,2895
6877,2895
7005,3205
7241,3441
7550,3569
7884,3570
8194,3442
8430,3206
8443,3176
20423,3176
23381,6134
23381,9059
23415,9230
23454,9288
23512,9375
23741,9604
23512,9833
23415,9978
23381,10149
23381,11469
23415,11640
23469,11720
23512,11785
24392,12665
24537,12762
24708,12796
30983,12796
31161,12974
31161,13053
31112,13086
30964,13308
30912,13569
30964,13830
31112,14052
31333,14200
31595,14252
31621,14252
31883,14200
32104,14052
32252,13830
32304,13569
32252,13308
32104,13086
32055,13053
32055,12789
32021,12618
31924,12473
31484,12033
31423,11992
31339,11936
31168,11902
24893,11902
24275,11284
24275,10748
24731,10748
24831,10961
25004,11121
25174,11191
25268,11144
25268,10654
25368,10654
25368,11144
25462,11191
25632,11121
25805,10961
25905,10748
25858,10654
25368,10654
25268,10654
24778,10654
24731,10748
24275,10748
24275,10334
24558,10051
24902,10051
24984,10106
24831,10247
24731,10460
24778,10554
25268,10554
25268,10546
25368,10546
25368,10554
25858,10554
25905,10460
25805,10247
25652,10106
25745,10043
25876,9847
25922,9616
25922,9592
25921,9586
30938,9586
30938,9622
31010,9982
31213,10286
31518,10490
31877,10561
32236,10490
32541,10286
32745,9982
32816,9622
32816,9586
32745,9226
32541,8922
32236,8718
31877,8647
31518,8718
31213,8922
31010,9226
30938,9586
25921,9586
25876,9361
25766,9195
25850,9141
25907,9058
25927,8958
25927,8250
25910,8157
25855,8072
25772,8015
25765,8014
25765,6984
26833,5916
27156,5916
27188,5948
27395,6034
27620,6034
27828,5948
27987,5789
28073,5582
28073,5357
27987,5149
27828,4990
27621,4904
27396,4904
27188,4990
27156,5022
26648,5022
26477,5056
26390,5115
26332,5153
25002,6483
24905,6628
24871,6799
24871,8012
24871,8012
24786,8067
24729,8151
24709,8250
24709,8958
24726,9051
24781,9136
24812,9157
24558,9157
24275,8874
24275,5949
24241,5778
24144,5633
21054,2543
21403,2543
21537,2867
21784,3115
22107,3249
22457,3249
22781,3115
23029,2868
23163,2545
23163,2369
25081,2369
25126,2595
25254,2786
25446,2914
25671,2959
25695,2959
25920,2914
26112,2786
26183,2680
26333,2844
26542,2942
26633,2894
26633,2419
26625,2419
26625,2319
26633,2319
26633,1844
26542,1796
26333,1894
26183,2058
26112,1952
25920,1824
25695,1779
25671,1779
25446,1824
25254,1952
25126,2143
25081,2369
23163,2369
23163,2195
23029,1871
22782,1624
22459,1489
22109,1489
21785,1623
21537,1870
21403,2193
21403,2543
21054,2543
20924,2413
20779,2316
20608,2282
8443,2282
8431,2254
8195,2017
7886,1889
7552,1888
7242,2016
7006,2252
6878,2561
6877,2895
5171,2895
5171,1421
2664,1421
1948,1421
1948,309
43938,309
43938,23800
" /> 
<polyline style="fill-rule:evenodd;"
points="9388,40370
7579,40370
8274,39675
8392,39498
8433,39289
8433,37709
8392,37500
8274,37323
7493,36543
7493,35229
7493,35121
7411,34921
7265,34774
7336,34774
7398,34712
7398,34279
7498,34279
7498,34712
7561,34774
7793,34774
7885,34736
7955,34666
7993,34574
7993,34342
7931,34279
7498,34279
7398,34279
7390,34279
7390,34179
7398,34179
7398,33746
7498,33746
7498,34179
7931,34179
7993,34117
7993,33884
7955,33792
7885,33722
7793,33684
7561,33684
7498,33746
7398,33746
7336,33684
7103,33684
7011,33722
6941,33792
6903,33884
6903,33938
6830,33917
6519,34229
6830,34541
6903,34520
6903,34574
6941,34666
6959,34684
6840,34684
6640,34766
6486,34920
6448,35011
6411,34921
6257,34767
6057,34684
5840,34684
5640,34766
5486,34920
5451,35005
5425,34944
5330,34917
5019,35229
5330,35541
5425,35514
5449,35448
5485,35537
5501,35553
5501,37309
5535,37480
5617,37602
5632,37625
6241,38234
6241,38330
6176,38372
6119,38455
6113,38482
6101,38464
5912,38337
5688,38293
5464,38337
5275,38464
5185,38598
5159,38542
4990,38388
4829,38322
4738,38369
4738,38839
4746,38839
4746,38939
4738,38939
4738,39409
4829,39457
4990,39390
5143,39250
5143,39749
5184,39958
5205,39989
5302,40135
5537,40370
1948,40370
1948,39030
4120,39030
4217,39236
4386,39390
4547,39457
4638,39409
4638,38939
4168,38939
4120,39030
1948,39030
1948,38749
4120,38749
4168,38839
4638,38839
4638,38369
4547,38322
4386,38388
4217,38542
4120,38749
1948,38749
1948,35612
3636,35612
3663,35706
3867,35779
4084,35768
4233,35706
4260,35612
4636,35612
4663,35706
4867,35779
5084,35768
5233,35706
5260,35612
4948,35300
4636,35612
4260,35612
3948,35300
3636,35612
1948,35612
1948,35148
3398,35148
3409,35365
3471,35514
3566,35541
3877,35229
4019,35229
4330,35541
4425,35514
4446,35455
4471,35514
4566,35541
4877,35229
4566,34917
4471,34944
4450,35003
4425,34944
4330,34917
4019,35229
3877,35229
3566,34917
3471,34944
3398,35148
1948,35148
1948,34847
3636,34847
3948,35158
4260,34847
4636,34847
4948,35158
5260,34847
5233,34752
5029,34679
4812,34690
4663,34752
4636,34847
4260,34847
4233,34752
4029,34679
3812,34690
3663,34752
3636,34847
1948,34847
1948,34612
4136,34612
4163,34706
4367,34779
4584,34768
4733,34706
4760,34612
5136,34612
5163,34706
5367,34779
5584,34768
5733,34706
5760,34612
6136,34612
6163,34706
6367,34779
6584,34768
6733,34706
6760,34612
6448,34300
6136,34612
5760,34612
5448,34300
5136,34612
4760,34612
4448,34300
4136,34612
1948,34612
1948,34148
3898,34148
3909,34365
3971,34514
4066,34541
4377,34229
4519,34229
4830,34541
4925,34514
4946,34455
4971,34514
5066,34541
5377,34229
5519,34229
5830,34541
5925,34514
5946,34455
5971,34514
6066,34541
6377,34229
6066,33917
5971,33944
5950,34003
5925,33944
5830,33917
5519,34229
5377,34229
5066,33917
4971,33944
4950,34003
4925,33944
4830,33917
4519,34229
4377,34229
4066,33917
3971,33944
3898,34148
1948,34148
1948,33847
4136,33847
4448,34158
4760,33847
5136,33847
5448,34158
5760,33847
6136,33847
6448,34158
6760,33847
6733,33752
6529,33679
6312,33690
6163,33752
6136,33847
5760,33847
5733,33752
5529,33679
5312,33690
5163,33752
5136,33847
4760,33847
4733,33752
4529,33679
4312,33690
4163,33752
4136,33847
1948,33847
1948,31921
2393,31921
2540,32277
2812,32550
3168,32697
3553,32698
3909,32551
4182,32278
4330,31923
4330,31921
7066,31921
7213,32277
7485,32550
7841,32697
8226,32698
8583,32551
8855,32278
9003,31923
9003,31537
8856,31181
8584,30908
8228,30761
7843,30760
7487,30907
7214,31180
7066,31536
7066,31921
4330,31921
4330,31537
4183,31181
3911,30908
3555,30761
3170,30760
2813,30907
2541,31180
2393,31536
2393,31921
1948,31921
1948,30529
9388,30529
9388,40370
" /> 
</g>
<g style="fill:#FFFFFF; fill-opacity:1.0; 
stroke:#FFFFFF; stroke-width:100; stroke-opacity:1; 
stroke-linecap:round; stroke-linejoin:round;">
</g>
<g style="fill:#FFFFFF; fill-opacity:1.0; 
stroke:#FFFFFF; stroke-width:0; stroke-opacity:1; 
stroke-linecap:round; stroke-linejoin:round;">
<circle cx="27608.5" cy="13569.5" r="216.535" /> 
</g>
<g style="fill:#FFFFFF; fill-opacity:1.0; 
stroke:#FFFFFF; stroke-width:39.3701; stroke-opacity:1; 
stroke-linecap:round; stroke-linejoin:round;">
</g>
<g style="fill:#FFFFFF; fill-opacity:1.0; 
stroke:#FFFFFF; stroke-width:0; stroke-opacity:1; 
stroke-linecap:round; stroke-linejoin:round;">
<circle cx="31608.5" cy="13569.5" r="216.535" /> 
</g>
<g style="fill:#FFFFFF; fill-opacity:1.0; 
stroke:#FFFFFF; stroke-width:39.3701; stroke-opacity:1; 
stroke-linecap:round; stroke-linejoin:round;">
</g>
<g style="fill:#FFFFFF; fill-opacity:1.0; 
stroke:#FFFFFF; stroke-width:393.701; stroke-opacity:1; 
stroke-linecap:round; stroke-linejoin:round;">
</g>
<g style="fill:#FFFFFF; fill-opacity:0.0; 
stroke:#FFFFFF; stroke-width:393.701; stroke-opacity:1; 
stroke-linecap:round; stroke-linejoin:round;">
<path d="M5718 9585
L5718 10373
" />
<path d="M3356 9585
L3356 10373
" />
<path d="M4143 11829
L4931 11829
" />
</g>
<g style="fill:#FFFFFF; fill-opacity:1.0; 
stroke:#FFFFFF; stroke-width:0; stroke-opacity:1; 
stroke-linecap:round; stroke-linejoin:round;">
<circle cx="3418.5" cy="19516.1" r="639.764" /> 
</g>
<g style="fill:#FFFFFF; fill-opacity:1.0; 
stroke:#FFFFFF; stroke-width:39.3701; stroke-opacity:1; 
stroke-linecap:round; stroke-linejoin:round;">
</g>
<g style="fill:#FFFFFF; fill-opacity:1.0; 
stroke:#FFFFFF; stroke-width:0; stroke-opacity:1; 
stroke-linecap:round; stroke-linejoin:round;">
<circle cx="3418.5" cy="14842.9" r="639.764" /> 
</g>
<g style="fill:#FFFFFF; fill-opacity:1.0; 
stroke:#FFFFFF; stroke-width:39.3701; stroke-opacity:1; 
stroke-linecap:round; stroke-linejoin:round;">
</g>
<g style="fill:#FFFFFF; fill-opacity:1.0; 
stroke:#FFFFFF; stroke-width:0; stroke-opacity:1; 
stroke-linecap:round; stroke-linejoin:round;">
<circle cx="5918.5" cy="15429.5" r="177.165" /> 
</g>
<g style="fill:#FFFFFF; fill-opacity:1.0; 
stroke:#FFFFFF; stroke-width:39.3701; stroke-opacity:1; 
stroke-linecap:round; stroke-linejoin:round;">
</g>
<g style="fill:#FFFFFF; fill-opacity:1.0; 
stroke:#FFFFFF; stroke-width:0; stroke-opacity:1; 
stroke-linecap:round; stroke-linejoin:round;">
<circle cx="6918.5" cy="15929.5" r="177.165" /> 
</g>
<g style="fill:#FFFFFF; fill-opacity:1.0; 
stroke:#FFFFFF; stroke-width:39.3701; stroke-opacity:1; 
stroke-linecap:round; stroke-linejoin:round;">
</g>
<g style="fill:#FFFFFF; fill-opacity:1.0; 
stroke:#FFFFFF; stroke-width:0; stroke-opacity:1; 
stroke-linecap:round; stroke-linejoin:round;">
<circle cx="5918.5" cy="16429.5" r="177.165" /> 
</g>
<g style="fill:#FFFFFF; fill-opacity:1.0; 
stroke:#FFFFFF; stroke-width:39.3701; stroke-opacity:1; 
stroke-linecap:round; stroke-linejoin:round;">
</g>
<g style="fill:#FFFFFF; fill-opacity:1.0; 
stroke:#FFFFFF; stroke-width:0; stroke-opacity:1; 
stroke-linecap:round; stroke-linejoin:round;">
<circle cx="6918.5" cy="16929.5" r="177.165" /> 
</g>
<g style="fill:#FFFFFF; fill-opacity:1.0; 
stroke:#FFFFFF; stroke-width:39.3701; stroke-opacity:1; 
stroke-linecap:round; stroke-linejoin:round;">
</g>
<g style="fill:#FFFFFF; fill-opacity:1.0; 
stroke:#FFFFFF; stroke-width:0; stroke-opacity:1; 
stroke-linecap:round; stroke-linejoin:round;">
<circle cx="5918.5" cy="17429.5" r="177.165" /> 
</g>
<g style="fill:#FFFFFF; fill-opacity:1.0; 
stroke:#FFFFFF; stroke-width:39.3701; stroke-opacity:1; 
stroke-linecap:round; stroke-linejoin:round;">
</g>
<g style="fill:#FFFFFF; fill-opacity:1.0; 
stroke:#FFFFFF; stroke-width:0; stroke-opacity:1; 
stroke-linecap:round; stroke-linejoin:round;">
<circle cx="6918.5" cy="17929.5" r="177.165" /> 
</g>
<g style="fill:#FFFFFF; fill-opacity:1.0; 
stroke:#FFFFFF; stroke-width:39.3701; stroke-opacity:1; 
stroke-linecap:round; stroke-linejoin:round;">
</g>
<g style="fill:#FFFFFF; fill-opacity:1.0; 
stroke:#FFFFFF; stroke-width:0; stroke-opacity:1; 
stroke-linecap:round; stroke-linejoin:round;">
<circle cx="5918.5" cy="18429.5" r="177.165" /> 
</g>
<g style="fill:#FFFFFF; fill-opacity:1.0; 
stroke:#FFFFFF; stroke-width:39.3701; stroke-opacity:1; 
stroke-linecap:round; stroke-linejoin:round;">
</g>
<g style="fill:#FFFFFF; fill-opacity:1.0; 
stroke:#FFFFFF; stroke-width:0; stroke-opacity:1; 
stroke-linecap:round; stroke-linejoin:round;">
<circle cx="6918.5" cy="18929.5" r="177.165" /> 
</g>
<g style="fill:#FFFFFF; fill-opacity:1.0; 
stroke:#FFFFFF; stroke-width:39.3701; stroke-opacity:1; 
stroke-linecap:round; stroke-linejoin:round;">
</g>
<g style="fill:#FFFFFF; fill-opacity:1.0; 
stroke:#FFFFFF; stroke-width:0; stroke-opacity:1; 
stroke-linecap:round; stroke-linejoin:round;">
<circle cx="12218.5" cy="8579.53" r="196.85" /> 
</g>
<g style="fill:#FFFFFF; fill-opacity:1.0; 
stroke:#FFFFFF; stroke-width:39.3701; stroke-opacity:1; 
stroke-linecap:round; stroke-linejoin:round;">
</g>
<g style="fill:#FFFFFF; fill-opacity:1.0; 
stroke:#FFFFFF; stroke-width:0; stroke-opacity:1; 
stroke-linecap:round; stroke-linejoin:round;">
<circle cx="12218.5" cy="9579.53" r="196.85" /> 
</g>
<g style="fill:#FFFFFF; fill-opacity:1.0; 
stroke:#FFFFFF; stroke-width:39.3701; stroke-opacity:1; 
stroke-linecap:round; stroke-linejoin:round;">
</g>
<g style="fill:#FFFFFF; fill-opacity:1.0; 
stroke:#FFFFFF; stroke-width:0; stroke-opacity:1; 
stroke-linecap:round; stroke-linejoin:round;">
<circle cx="12218.5" cy="10579.5" r="196.85" /> 
</g>
<g style="fill:#FFFFFF; fill-opacity:1.0; 
stroke:#FFFFFF; stroke-width:39.3701; stroke-opacity:1; 
stroke-linecap:round; stroke-linejoin:round;">
</g>
<g style="fill:#FFFFFF; fill-opacity:1.0; 
stroke:#FFFFFF; stroke-width:0; stroke-opacity:1; 
stroke-linecap:round; stroke-linejoin:round;">
<circle cx="12218.5" cy="11579.5" r="196.85" /> 
</g>
<g style="fill:#FFFFFF; fill-opacity:1.0; 
stroke:#FFFFFF; stroke-width:39.3701; stroke-opacity:1; 
stroke-linecap:round; stroke-linejoin:round;">
</g>
<g style="fill:#FFFFFF; fill-opacity:1.0; 
stroke:#FFFFFF; stroke-width:0; stroke-opacity:1; 
stroke-linecap:round; stroke-linejoin:round;">
<circle cx="12218.5" cy="16979.5" r="196.85" /> 
</g>
<g style="fill:#FFFFFF; fill-opacity:1.0; 
stroke:#FFFFFF; stroke-width:39.3701; stroke-opacity:1; 
stroke-linecap:round; stroke-linejoin:round;">
</g>
<g style="fill:#FFFFFF; fill-opacity:1.0; 
stroke:#FFFFFF; stroke-width:0; stroke-opacity:1; 
stroke-linecap:round; stroke-linejoin:round;">
<circle cx="12218.5" cy="17979.5" r="196.85" /> 
</g>
<g style="fill:#FFFFFF; fill-opacity:1.0; 
stroke:#FFFFFF; stroke-width:39.3701; stroke-opacity:1; 
stroke-linecap:round; stroke-linejoin:round;">
</g>
<g style="fill:#FFFFFF; fill-opacity:1.0; 
stroke:#FFFFFF; stroke-width:0; stroke-opacity:1; 
stroke-linecap:round; stroke-linejoin:round;">
<circle cx="12218.5" cy="18979.5" r="196.85" /> 
</g>
<g style="fill:#FFFFFF; fill-opacity:1.0; 
stroke:#FFFFFF; stroke-width:39.3701; stroke-opacity:1; 
stroke-linecap:round; stroke-linejoin:round;">
</g>
<g style="fill:#FFFFFF; fill-opacity:1.0; 
stroke:#FFFFFF; stroke-width:0; stroke-opacity:1; 
stroke-linecap:round; stroke-linejoin:round;">
<circle cx="12218.5" cy="19979.5" r="196.85" /> 
</g>
<g style="fill:#FFFFFF; fill-opacity:1.0; 
stroke:#FFFFFF; stroke-width:39.3701; stroke-opacity:1; 
stroke-linecap:round; stroke-linejoin:round;">
</g>
<g style="fill:#FFFFFF; fill-opacity:1.0; 
stroke:#FFFFFF; stroke-width:0; stroke-opacity:1; 
stroke-linecap:round; stroke-linejoin:round;">
<circle cx="7718.5" cy="4729.53" r="299.213" /> 
</g>
<g style="fill:#FFFFFF; fill-opacity:1.0; 
stroke:#FFFFFF; stroke-width:39.3701; stroke-opacity:1; 
stroke-linecap:round; stroke-linejoin:round;">
</g>
<g style="fill:#FFFFFF; fill-opacity:1.0; 
stroke:#FFFFFF; stroke-width:0; stroke-opacity:1; 
stroke-linecap:round; stroke-linejoin:round;">
<circle cx="7718.5" cy="2729.53" r="299.213" /> 
</g>
<g style="fill:#FFFFFF; fill-opacity:1.0; 
stroke:#FFFFFF; stroke-width:39.3701; stroke-opacity:1; 
stroke-linecap:round; stroke-linejoin:round;">
</g>
<g style="fill:#FFFFFF; fill-opacity:1.0; 
stroke:#FFFFFF; stroke-width:0; stroke-opacity:1; 
stroke-linecap:round; stroke-linejoin:round;">
<circle cx="3361.89" cy="31729.5" r="639.764" /> 
</g>
<g style="fill:#FFFFFF; fill-opacity:1.0; 
stroke:#FFFFFF; stroke-width:39.3701; stroke-opacity:1; 
stroke-linecap:round; stroke-linejoin:round;">
</g>
<g style="fill:#FFFFFF; fill-opacity:1.0; 
stroke:#FFFFFF; stroke-width:0; stroke-opacity:1; 
stroke-linecap:round; stroke-linejoin:round;">
<circle cx="8035.12" cy="31729.5" r="639.764" /> 
</g>
<g style="fill:#FFFFFF; fill-opacity:1.0; 
stroke:#FFFFFF; stroke-width:39.3701; stroke-opacity:1; 
stroke-linecap:round; stroke-linejoin:round;">
</g>
<g style="fill:#FFFFFF; fill-opacity:1.0; 
stroke:#FFFFFF; stroke-width:0; stroke-opacity:1; 
stroke-linecap:round; stroke-linejoin:round;">
<circle cx="7448.5" cy="34229.5" r="177.165" /> 
</g>
<g style="fill:#FFFFFF; fill-opacity:1.0; 
stroke:#FFFFFF; stroke-width:39.3701; stroke-opacity:1; 
stroke-linecap:round; stroke-linejoin:round;">
</g>
<g style="fill:#FFFFFF; fill-opacity:1.0; 
stroke:#FFFFFF; stroke-width:0; stroke-opacity:1; 
stroke-linecap:round; stroke-linejoin:round;">
<circle cx="6948.5" cy="35229.5" r="177.165" /> 
</g>
<g style="fill:#FFFFFF; fill-opacity:1.0; 
stroke:#FFFFFF; stroke-width:39.3701; stroke-opacity:1; 
stroke-linecap:round; stroke-linejoin:round;">
</g>
<g style="fill:#FFFFFF; fill-opacity:1.0; 
stroke:#FFFFFF; stroke-width:0; stroke-opacity:1; 
stroke-linecap:round; stroke-linejoin:round;">
<circle cx="6448.5" cy="34229.5" r="177.165" /> 
</g>
<g style="fill:#FFFFFF; fill-opacity:1.0; 
stroke:#FFFFFF; stroke-width:39.3701; stroke-opacity:1; 
stroke-linecap:round; stroke-linejoin:round;">
</g>
<g style="fill:#FFFFFF; fill-opacity:1.0; 
stroke:#FFFFFF; stroke-width:0; stroke-opacity:1; 
stroke-linecap:round; stroke-linejoin:round;">
<circle cx="5948.5" cy="35229.5" r="177.165" /> 
</g>
<g style="fill:#FFFFFF; fill-opacity:1.0; 
stroke:#FFFFFF; stroke-width:39.3701; stroke-opacity:1; 
stroke-linecap:round; stroke-linejoin:round;">
</g>
<g style="fill:#FFFFFF; fill-opacity:1.0; 
stroke:#FFFFFF; stroke-width:0; stroke-opacity:1; 
stroke-linecap:round; stroke-linejoin:round;">
<circle cx="5448.5" cy="34229.5" r="177.165" /> 
</g>
<g style="fill:#FFFFFF; fill-opacity:1.0; 
stroke:#FFFFFF; stroke-width:39.3701; stroke-opacity:1; 
stroke-linecap:round; stroke-linejoin:round;">
</g>
<g style="fill:#FFFFFF; fill-opacity:1.0; 
stroke:#FFFFFF; stroke-width:0; stroke-opacity:1; 
stroke-linecap:round; stroke-linejoin:round;">
<circle cx="4948.5" cy="35229.5" r="177.165" /> 
</g>
<g style="fill:#FFFFFF; fill-opacity:1.0; 
stroke:#FFFFFF; stroke-width:39.3701; stroke-opacity:1; 
stroke-linecap:round; stroke-linejoin:round;">
</g>
<g style="fill:#FFFFFF; fill-opacity:1.0; 
stroke:#FFFFFF; stroke-width:0; stroke-opacity:1; 
stroke-linecap:round; stroke-linejoin:round;">
<circle cx="4448.5" cy="34229.5" r="177.165" /> 
</g>
<g style="fill:#FFFFFF; fill-opacity:1.0; 
stroke:#FFFFFF; stroke-width:39.3701; stroke-opacity:1; 
stroke-linecap:round; stroke-linejoin:round;">
</g>
<g style="fill:#FFFFFF; fill-opacity:1.0; 
stroke:#FFFFFF; stroke-width:0; stroke-opacity:1; 
stroke-linecap:round; stroke-linejoin:round;">
<circle cx="3948.5" cy="35229.5" r="177.165" /> 
</g>
<g style="fill:#FFFFFF; fill-opacity:1.0; 
stroke:#FFFFFF; stroke-width:39.3701; stroke-opacity:1; 
stroke-linecap:round; stroke-linejoin:round;">
</g>
<g style="fill:#FFFFFF; fill-opacity:1.0; 
stroke:#FFFFFF; stroke-width:0; stroke-opacity:1; 
stroke-linecap:round; stroke-linejoin:round;">
<circle cx="6688.5" cy="38889.5" r="196.85" /> 
</g>
<g style="fill:#FFFFFF; fill-opacity:1.0; 
stroke:#FFFFFF; stroke-width:39.3701; stroke-opacity:1; 
stroke-linecap:round; stroke-linejoin:round;">
</g>
<g style="fill:#FFFFFF; fill-opacity:1.0; 
stroke:#FFFFFF; stroke-width:0; stroke-opacity:1; 
stroke-linecap:round; stroke-linejoin:round;">
<circle cx="5688.5" cy="38889.5" r="196.85" /> 
</g>
<g style="fill:#FFFFFF; fill-opacity:1.0; 
stroke:#FFFFFF; stroke-width:39.3701; stroke-opacity:1; 
stroke-linecap:round; stroke-linejoin:round;">
</g>
<g style="fill:#FFFFFF; fill-opacity:1.0; 
stroke:#FFFFFF; stroke-width:0; stroke-opacity:1; 
stroke-linecap:round; stroke-linejoin:round;">
<circle cx="4688.5" cy="38889.5" r="196.85" /> 
</g>
<g style="fill:#FFFFFF; fill-opacity:1.0; 
stroke:#FFFFFF; stroke-width:39.3701; stroke-opacity:1; 
stroke-linecap:round; stroke-linejoin:round;">
</g>
<g style="fill:#FFFFFF; fill-opacity:1.0; 
stroke:#FFFFFF; stroke-width:0; stroke-opacity:1; 
stroke-linecap:round; stroke-linejoin:round;">
<circle cx="31877.6" cy="9604.53" r="688.976" /> 
</g>
<g style="fill:#FFFFFF; fill-opacity:1.0; 
stroke:#FFFFFF; stroke-width:39.3701; stroke-opacity:1; 
stroke-linecap:round; stroke-linejoin:round;">
</g>
<g style="fill:#FFFFFF; fill-opacity:1.0; 
stroke:#FFFFFF; stroke-width:0; stroke-opacity:1; 
stroke-linecap:round; stroke-linejoin:round;">
<circle cx="25318.5" cy="8604.53" r="196.85" /> 
</g>
<g style="fill:#FFFFFF; fill-opacity:1.0; 
stroke:#FFFFFF; stroke-width:39.3701; stroke-opacity:1; 
stroke-linecap:round; stroke-linejoin:round;">
</g>
<g style="fill:#FFFFFF; fill-opacity:1.0; 
stroke:#FFFFFF; stroke-width:0; stroke-opacity:1; 
stroke-linecap:round; stroke-linejoin:round;">
<circle cx="25318.5" cy="9604.53" r="196.85" /> 
</g>
<g style="fill:#FFFFFF; fill-opacity:1.0; 
stroke:#FFFFFF; stroke-width:39.3701; stroke-opacity:1; 
stroke-linecap:round; stroke-linejoin:round;">
</g>
<g style="fill:#FFFFFF; fill-opacity:1.0; 
stroke:#FFFFFF; stroke-width:0; stroke-opacity:1; 
stroke-linecap:round; stroke-linejoin:round;">
<circle cx="25318.5" cy="10604.5" r="196.85" /> 
</g>
<g style="fill:#FFFFFF; fill-opacity:1.0; 
stroke:#FFFFFF; stroke-width:39.3701; stroke-opacity:1; 
stroke-linecap:round; stroke-linejoin:round;">
</g>
<g style="fill:#FFFFFF; fill-opacity:1.0; 
stroke:#FFFFFF; stroke-width:0; stroke-opacity:1; 
stroke-linecap:round; stroke-linejoin:round;">
<circle cx="27508.5" cy="5469.53" r="157.48" /> 
</g>
<g style="fill:#FFFFFF; fill-opacity:1.0; 
stroke:#FFFFFF; stroke-width:39.3701; stroke-opacity:1; 
stroke-linecap:round; stroke-linejoin:round;">
</g>
<g style="fill:#FFFFFF; fill-opacity:1.0; 
stroke:#FFFFFF; stroke-width:0; stroke-opacity:1; 
stroke-linecap:round; stroke-linejoin:round;">
<circle cx="31508.5" cy="5469.53" r="157.48" /> 
</g>
<g style="fill:#FFFFFF; fill-opacity:1.0; 
stroke:#FFFFFF; stroke-width:39.3701; stroke-opacity:1; 
stroke-linecap:round; stroke-linejoin:round;">
</g>
<g style="fill:#FFFFFF; fill-opacity:1.0; 
stroke:#FFFFFF; stroke-width:0; stroke-opacity:1; 
stroke-linecap:round; stroke-linejoin:round;">
<circle cx="36283.5" cy="21369.5" r="200" /> 
</g>
<g style="fill:#FFFFFF; fill-opacity:1.0; 
stroke:#FFFFFF; stroke-width:39.3701; stroke-opacity:1; 
stroke-linecap:round; stroke-linejoin:round;">
</g>
<g style="fill:#FFFFFF; fill-opacity:1.0; 
stroke:#FFFFFF; stroke-width:0; stroke-opacity:1; 
stroke-linecap:round; stroke-linejoin:round;">
<circle cx="34283.5" cy="21369.5" r="200" /> 
</g>
<g style="fill:#FFFFFF; fill-opacity:1.0; 
stroke:#FFFFFF; stroke-width:39.3701; stroke-opacity:1; 
stroke-linecap:round; stroke-linejoin:round;">
</g>
<g style="fill:#FFFFFF; fill-opacity:1.0; 
stroke:#FFFFFF; stroke-width:0; stroke-opacity:1; 
stroke-linecap:round; stroke-linejoin:round;">
<circle cx="33283.5" cy="21369.5" r="200" /> 
</g>
<g style="fill:#FFFFFF; fill-opacity:1.0; 
stroke:#FFFFFF; stroke-width:39.3701; stroke-opacity:1; 
stroke-linecap:round; stroke-linejoin:round;">
</g>
<g style="fill:#FFFFFF; fill-opacity:1.0; 
stroke:#FFFFFF; stroke-width:0; stroke-opacity:1; 
stroke-linecap:round; stroke-linejoin:round;">
<circle cx="32283.5" cy="21369.5" r="200" /> 
</g>
<g style="fill:#FFFFFF; fill-opacity:1.0; 
stroke:#FFFFFF; stroke-width:39.3701; stroke-opacity:1; 
stroke-linecap:round; stroke-linejoin:round;">
</g>
<g style="fill:#FFFFFF; fill-opacity:1.0; 
stroke:#FFFFFF; stroke-width:0; stroke-opacity:1; 
stroke-linecap:round; stroke-linejoin:round;">
<circle cx="31283.5" cy="21369.5" r="200" /> 
</g>
<g style="fill:#FFFFFF; fill-opacity:1.0; 
stroke:#FFFFFF; stroke-width:39.3701; stroke-opacity:1; 
stroke-linecap:round; stroke-linejoin:round;">
</g>
<g style="fill:#FFFFFF; fill-opacity:1.0; 
stroke:#FFFFFF; stroke-width:0; stroke-opacity:1; 
stroke-linecap:round; stroke-linejoin:round;">
<circle cx="30283.5" cy="21369.5" r="200" /> 
</g>
<g style="fill:#FFFFFF; fill-opacity:1.0; 
stroke:#FFFFFF; stroke-width:39.3701; stroke-opacity:1; 
stroke-linecap:round; stroke-linejoin:round;">
</g>
<g style="fill:#FFFFFF; fill-opacity:1.0; 
stroke:#FFFFFF; stroke-width:0; stroke-opacity:1; 
stroke-linecap:round; stroke-linejoin:round;">
<circle cx="29283.5" cy="21369.5" r="200" /> 
</g>
<g style="fill:#FFFFFF; fill-opacity:1.0; 
stroke:#FFFFFF; stroke-width:39.3701; stroke-opacity:1; 
stroke-linecap:round; stroke-linejoin:round;">
</g>
<g style="fill:#FFFFFF; fill-opacity:1.0; 
stroke:#FFFFFF; stroke-width:0; stroke-opacity:1; 
stroke-linecap:round; stroke-linejoin:round;">
<circle cx="41283.5" cy="2369.53" r="200" /> 
</g>
<g style="fill:#FFFFFF; fill-opacity:1.0; 
stroke:#FFFFFF; stroke-width:39.3701; stroke-opacity:1; 
stroke-linecap:round; stroke-linejoin:round;">
</g>
<g style="fill:#FFFFFF; fill-opacity:1.0; 
stroke:#FFFFFF; stroke-width:0; stroke-opacity:1; 
stroke-linecap:round; stroke-linejoin:round;">
<circle cx="40283.5" cy="2369.53" r="200" /> 
</g>
<g style="fill:#FFFFFF; fill-opacity:1.0; 
stroke:#FFFFFF; stroke-width:39.3701; stroke-opacity:1; 
stroke-linecap:round; stroke-linejoin:round;">
</g>
<g style="fill:#FFFFFF; fill-opacity:1.0; 
stroke:#FFFFFF; stroke-width:0; stroke-opacity:1; 
stroke-linecap:round; stroke-linejoin:round;">
<circle cx="39283.5" cy="2369.53" r="200" /> 
</g>
<g style="fill:#FFFFFF; fill-opacity:1.0; 
stroke:#FFFFFF; stroke-width:39.3701; stroke-opacity:1; 
stroke-linecap:round; stroke-linejoin:round;">
</g>
<g style="fill:#FFFFFF; fill-opacity:1.0; 
stroke:#FFFFFF; stroke-width:0; stroke-opacity:1; 
stroke-linecap:round; stroke-linejoin:round;">
<circle cx="38283.5" cy="2369.53" r="200" /> 
</g>
<g style="fill:#FFFFFF; fill-opacity:1.0; 
stroke:#FFFFFF; stroke-width:39.3701; stroke-opacity:1; 
stroke-linecap:round; stroke-linejoin:round;">
</g>
<g style="fill:#FFFFFF; fill-opacity:1.0; 
stroke:#FFFFFF; stroke-width:0; stroke-opacity:1; 
stroke-linecap:round; stroke-linejoin:round;">
<circle cx="37283.5" cy="2369.53" r="200" /> 
</g>
<g style="fill:#FFFFFF; fill-opacity:1.0; 
stroke:#FFFFFF; stroke-width:39.3701; stroke-opacity:1; 
stroke-linecap:round; stroke-linejoin:round;">
</g>
<g style="fill:#FFFFFF; fill-opacity:1.0; 
stroke:#FFFFFF; stroke-width:0; stroke-opacity:1; 
stroke-linecap:round; stroke-linejoin:round;">
<circle cx="36283.5" cy="2369.53" r="200" /> 
</g>
<g style="fill:#FFFFFF; fill-opacity:1.0; 
stroke:#FFFFFF; stroke-width:39.3701; stroke-opacity:1; 
stroke-linecap:round; stroke-linejoin:round;">
</g>
<g style="fill:#FFFFFF; fill-opacity:1.0; 
stroke:#FFFFFF; stroke-width:0; stroke-opacity:1; 
stroke-linecap:round; stroke-linejoin:round;">
<circle cx="35283.5" cy="2369.53" r="200" /> 
</g>
<g style="fill:#FFFFFF; fill-opacity:1.0; 
stroke:#FFFFFF; stroke-width:39.3701; stroke-opacity:1; 
stroke-linecap:round; stroke-linejoin:round;">
</g>
<g style="fill:#FFFFFF; fill-opacity:1.0; 
stroke:#FFFFFF; stroke-width:0; stroke-opacity:1; 
stroke-linecap:round; stroke-linejoin:round;">
<circle cx="34283.5" cy="2369.53" r="200" /> 
</g>
<g style="fill:#FFFFFF; fill-opacity:1.0; 
stroke:#FFFFFF; stroke-width:39.3701; stroke-opacity:1; 
stroke-linecap:round; stroke-linejoin:round;">
</g>
<g style="fill:#FFFFFF; fill-opacity:1.0; 
stroke:#FFFFFF; stroke-width:0; stroke-opacity:1; 
stroke-linecap:round; stroke-linejoin:round;">
<circle cx="26683.5" cy="2369.53" r="200" /> 
</g>
<g style="fill:#FFFFFF; fill-opacity:1.0; 
stroke:#FFFFFF; stroke-width:39.3701; stroke-opacity:1; 
stroke-linecap:round; stroke-linejoin:round;">
</g>
<g style="fill:#FFFFFF; fill-opacity:1.0; 
stroke:#FFFFFF; stroke-width:0; stroke-opacity:1; 
stroke-linecap:round; stroke-linejoin:round;">
<circle cx="32683.5" cy="2369.53" r="200" /> 
</g>
<g style="fill:#FFFFFF; fill-opacity:1.0; 
stroke:#FFFFFF; stroke-width:39.3701; stroke-opacity:1; 
stroke-linecap:round; stroke-linejoin:round;">
</g>
<g style="fill:#FFFFFF; fill-opacity:1.0; 
stroke:#FFFFFF; stroke-width:0; stroke-opacity:1; 
stroke-linecap:round; stroke-linejoin:round;">
<circle cx="31683.5" cy="2369.53" r="200" /> 
</g>
<g style="fill:#FFFFFF; fill-opacity:1.0; 
stroke:#FFFFFF; stroke-width:39.3701; stroke-opacity:1; 
stroke-linecap:round; stroke-linejoin:round;">
</g>
<g style="fill:#FFFFFF; fill-opacity:1.0; 
stroke:#FFFFFF; stroke-width:0; stroke-opacity:1; 
stroke-linecap:round; stroke-linejoin:round;">
<circle cx="30683.5" cy="2369.53" r="200" /> 
</g>
<g style="fill:#FFFFFF; fill-opacity:1.0; 
stroke:#FFFFFF; stroke-width:39.3701; stroke-opacity:1; 
stroke-linecap:round; stroke-linejoin:round;">
</g>
<g style="fill:#FFFFFF; fill-opacity:1.0; 
stroke:#FFFFFF; stroke-width:0; stroke-opacity:1; 
stroke-linecap:round; stroke-linejoin:round;">
<circle cx="42283.5" cy="19369.5" r="629.921" /> 
</g>
<g style="fill:#FFFFFF; fill-opacity:1.0; 
stroke:#FFFFFF; stroke-width:39.3701; stroke-opacity:1; 
stroke-linecap:round; stroke-linejoin:round;">
</g>
<g style="fill:#FFFFFF; fill-opacity:1.0; 
stroke:#FFFFFF; stroke-width:0; stroke-opacity:1; 
stroke-linecap:round; stroke-linejoin:round;">
<circle cx="42283.5" cy="8369.53" r="629.921" /> 
</g>
<g style="fill:#FFFFFF; fill-opacity:1.0; 
stroke:#FFFFFF; stroke-width:39.3701; stroke-opacity:1; 
stroke-linecap:round; stroke-linejoin:round;">
</g>
<g style="fill:#FFFFFF; fill-opacity:1.0; 
stroke:#FFFFFF; stroke-width:0; stroke-opacity:1; 
stroke-linecap:round; stroke-linejoin:round;">
<circle cx="22283.5" cy="2369.53" r="629.921" /> 
</g>
<g style="fill:#FFFFFF; fill-opacity:1.0; 
stroke:#FFFFFF; stroke-width:39.3701; stroke-opacity:1; 
stroke-linecap:round; stroke-linejoin:round;">
</g>
<g style="fill:#FFFFFF; fill-opacity:1.0; 
stroke:#FFFFFF; stroke-width:0; stroke-opacity:1; 
stroke-linecap:round; stroke-linejoin:round;">
<circle cx="21783.5" cy="21369.5" r="629.921" /> 
</g>
<g style="fill:#FFFFFF; fill-opacity:1.0; 
stroke:#FFFFFF; stroke-width:39.3701; stroke-opacity:1; 
stroke-linecap:round; stroke-linejoin:round;">
</g>
<g style="fill:#FFFFFF; fill-opacity:1.0; 
stroke:#FFFFFF; stroke-width:0; stroke-opacity:1; 
stroke-linecap:round; stroke-linejoin:round;">
<circle cx="25683.5" cy="2369.53" r="200" /> 
</g>
<g style="fill:#FFFFFF; fill-opacity:1.0; 
stroke:#FFFFFF; stroke-width:39.3701; stroke-opacity:1; 
stroke-linecap:round; stroke-linejoin:round;">
</g>
<g style="fill:#FFFFFF; fill-opacity:1.0; 
stroke:#FFFFFF; stroke-width:0; stroke-opacity:1; 
stroke-linecap:round; stroke-linejoin:round;">
<circle cx="27683.5" cy="2369.53" r="200" /> 
</g>
<g style="fill:#FFFFFF; fill-opacity:1.0; 
stroke:#FFFFFF; stroke-width:39.3701; stroke-opacity:1; 
stroke-linecap:round; stroke-linejoin:round;">
</g>
<g style="fill:#FFFFFF; fill-opacity:1.0; 
stroke:#FFFFFF; stroke-width:0; stroke-opacity:1; 
stroke-linecap:round; stroke-linejoin:round;">
<circle cx="28683.5" cy="2369.53" r="200" /> 
</g>
<g style="fill:#FFFFFF; fill-opacity:1.0; 
stroke:#FFFFFF; stroke-width:39.3701; stroke-opacity:1; 
stroke-linecap:round; stroke-linejoin:round;">
</g>
<g style="fill:#FFFFFF; fill-opacity:1.0; 
stroke:#FFFFFF; stroke-width:0; stroke-opacity:1; 
stroke-linecap:round; stroke-linejoin:round;">
<circle cx="29683.5" cy="2369.53" r="200" /> 
</g>
<g style="fill:#FFFFFF; fill-opacity:1.0; 
stroke:#FFFFFF; stroke-width:39.3701; stroke-opacity:1; 
stroke-linecap:round; stroke-linejoin:round;">
</g>
<g style="fill:#FFFFFF; fill-opacity:1.0; 
stroke:#FFFFFF; stroke-width:0; stroke-opacity:1; 
stroke-linecap:round; stroke-linejoin:round;">
<circle cx="37283.5" cy="21369.5" r="200" /> 
</g>
<g style="fill:#FFFFFF; fill-opacity:1.0; 
stroke:#FFFFFF; stroke-width:39.3701; stroke-opacity:1; 
stroke-linecap:round; stroke-linejoin:round;">
</g>
<g style="fill:#FFFFFF; fill-opacity:1.0; 
stroke:#FFFFFF; stroke-width:0; stroke-opacity:1; 
stroke-linecap:round; stroke-linejoin:round;">
<circle cx="38283.5" cy="21369.5" r="200" /> 
</g>
<g style="fill:#FFFFFF; fill-opacity:1.0; 
stroke:#FFFFFF; stroke-width:39.3701; stroke-opacity:1; 
stroke-linecap:round; stroke-linejoin:round;">
</g>
<g style="fill:#FFFFFF; fill-opacity:1.0; 
stroke:#FFFFFF; stroke-width:0; stroke-opacity:1; 
stroke-linecap:round; stroke-linejoin:round;">
<circle cx="39283.5" cy="21369.5" r="200" /> 
</g>
<g style="fill:#FFFFFF; fill-opacity:1.0; 
stroke:#FFFFFF; stroke-width:39.3701; stroke-opacity:1; 
stroke-linecap:round; stroke-linejoin:round;">
</g>
<g style="fill:#FFFFFF; fill-opacity:1.0; 
stroke:#FFFFFF; stroke-width:0; stroke-opacity:1; 
stroke-linecap:round; stroke-linejoin:round;">
<circle cx="40283.5" cy="21369.5" r="200" /> 
</g>
<g style="fill:#FFFFFF; fill-opacity:1.0; 
stroke:#FFFFFF; stroke-width:39.3701; stroke-opacity:1; 
stroke-linecap:round; stroke-linejoin:round;">
</g>
<g style="fill:#FFFFFF; fill-opacity:1.0; 
stroke:#FFFFFF; stroke-width:0; stroke-opacity:1; 
stroke-linecap:round; stroke-linejoin:round;">
<circle cx="41283.5" cy="21369.5" r="200" /> 
</g>
<g style="fill:#FFFFFF; fill-opacity:1.0; 
stroke:#FFFFFF; stroke-width:39.3701; stroke-opacity:1; 
stroke-linecap:round; stroke-linejoin:round;">
</g>
<g style="fill:#000000; fill-opacity:1.0; 
stroke:#000000; stroke-width:39.3701; stroke-opacity:1; 
stroke-linecap:round; stroke-linejoin:round;">
</g>
<g style="fill:#000000; fill-opacity:1.0; 
stroke:#000000; stroke-width:59.0551; stroke-opacity:1; 
stroke-linecap:round; stroke-linejoin:round;">
</g>
<g style="fill:#000000; fill-opacity:0.0; 
stroke:#000000; stroke-width:59.0551; stroke-opacity:1; 
stroke-linecap:round; stroke-linejoin:round;">
<path d="M1668 40649
L1668 30249
" />
<path d="M9668 40649
L1688 40649
" />
<path d="M9668 30249
L9668 40649
" />
<path d="M1668 30249
L9668 30249
" />
<path d="M1668 24079
L1718 24079
" />
<path d="M1668 23279
L1668 24079
" />
<path d="M44218 23279
L44218 24079
" />
<path d="M1718 29
L1668 29
" />
<path d="M1668 23279
L1668 29
" />
<path d="M44218 24079
L1718 24079
" />
<path d="M44218 29
L44218 23279
" />
<path d="M44218 29
L1668 29
" />
<path d="M1718 29
L44218 29
" />
</g> 
</svg>
